<svg width="24" height="24" viewBox="0 0 24 24" fill="none" xmlns="http://www.w3.org/2000/svg">
<path d="M12 0C18.6274 0 24 5.37258 24 12C24 18.6274 18.6274 24 12 24C5.37258 24 0 18.6274 0 12C0 5.37258 5.37258 0 12 0Z" fill="#FEE2E2"/>
<path d="M16.1181 8.86807C16.4599 8.52627 16.4599 7.97119 16.1181 7.62939C15.7763 7.2876 15.2212 7.2876 14.8794 7.62939L12.0001 10.5114L9.11807 7.63213C8.77627 7.29033 8.22119 7.29033 7.87939 7.63213C7.5376 7.97393 7.5376 8.529 7.87939 8.8708L10.7614 11.7501L7.88213 14.6321C7.54033 14.9739 7.54033 15.529 7.88213 15.8708C8.22393 16.2126 8.779 16.2126 9.1208 15.8708L12.0001 12.9888L14.8821 15.8681C15.2239 16.2099 15.779 16.2099 16.1208 15.8681C16.4626 15.5263 16.4626 14.9712 16.1208 14.6294L13.2388 11.7501L16.1181 8.86807Z" fill="#DC2626"/>
</svg>
