<svg width="24" height="24" viewBox="0 0 24 24" fill="none" xmlns="http://www.w3.org/2000/svg">
<path d="M12 0C18.6274 0 24 5.37258 24 12C24 18.6274 18.6274 24 12 24C5.37258 24 0 18.6274 0 12C0 5.37258 5.37258 0 12 0Z" fill="#DCFCE7"/>
<g clip-path="url(#clip0_71_1131)">
<path d="M17.8681 7.63135C18.2099 7.97314 18.2099 8.52822 17.8681 8.87002L10.8681 15.87C10.5263 16.2118 9.97119 16.2118 9.62939 15.87L6.12939 12.37C5.7876 12.0282 5.7876 11.4731 6.12939 11.1313C6.47119 10.7896 7.02627 10.7896 7.36807 11.1313L10.2501 14.0106L16.6321 7.63135C16.9739 7.28955 17.529 7.28955 17.8708 7.63135H17.8681Z" fill="#16A34A"/>
</g>
<defs>
<clipPath id="clip0_71_1131">
<path d="M5.875 4.75H18.125V18.75H5.875V4.75Z" fill="white"/>
</clipPath>
</defs>
</svg>
