<svg width="64" height="64" viewBox="0 0 64 64" fill="none" xmlns="http://www.w3.org/2000/svg">
<path d="M48 0C56.8366 0 64 7.16344 64 16V48C64 56.8366 56.8366 64 48 64H16C7.16344 64 0 56.8366 0 48V16C0 7.16344 7.16344 0 16 0H48Z" fill="#FFEDD5"/>
<g clip-path="url(#clip0_71_683)">
<path d="M24.5 20.5C24.5 19.6703 23.8297 19 23 19C22.1703 19 21.5 19.6703 21.5 20.5V22V36.25V41.5C21.5 42.3297 22.1703 43 23 43C23.8297 43 24.5 42.3297 24.5 41.5V35.5L27.5141 34.7453C29.4406 34.2625 31.4797 34.4875 33.2563 35.3734C35.3281 36.4094 37.7328 36.5359 39.8984 35.7203L41.525 35.1109C42.1109 34.8906 42.5 34.3328 42.5 33.7047V22.0984C42.5 21.0203 41.3656 20.3172 40.4 20.8L39.95 21.025C37.7797 22.1125 35.225 22.1125 33.0547 21.025C31.4094 20.2 29.5203 19.9938 27.7344 20.4391L24.5 21.25V20.5Z" fill="#F97316"/>
</g>
<defs>
<clipPath id="clip0_71_683">
<path d="M21.5 19H42.5V43H21.5V19Z" fill="white"/>
</clipPath>
</defs>
</svg>
