<svg width="64" height="64" viewBox="0 0 64 64" fill="none" xmlns="http://www.w3.org/2000/svg">
<path d="M48 0C56.8366 0 64 7.16344 64 16V48C64 56.8366 56.8366 64 48 64H16C7.16344 64 0 56.8366 0 48V16C0 7.16344 7.16344 0 16 0H48Z" fill="#DCFCE7"/>
<g clip-path="url(#clip0_71_691)">
<path d="M43.9999 30.25C43.9999 35.6359 38.628 40 31.9999 40C30.2609 40 28.6109 39.7 27.1202 39.1609C26.5624 39.5688 25.6531 40.1266 24.5749 40.5953C23.4499 41.0828 22.0952 41.5 20.7499 41.5C20.4452 41.5 20.1734 41.3172 20.0562 41.0359C19.939 40.7547 20.0046 40.4359 20.2156 40.2203L20.2296 40.2062C20.2437 40.1922 20.2624 40.1734 20.2906 40.1406C20.3421 40.0844 20.4218 39.9953 20.5202 39.8734C20.7124 39.6391 20.9702 39.2922 21.2327 38.8609C21.7015 38.0828 22.1468 37.0609 22.2359 35.9125C20.8296 34.3187 19.9999 32.3641 19.9999 30.25C19.9999 24.8641 25.3718 20.5 31.9999 20.5C38.628 20.5 43.9999 24.8641 43.9999 30.25Z" fill="#16A34A"/>
</g>
<defs>
<clipPath id="clip0_71_691">
<path d="M20 19H44V43H20V19Z" fill="white"/>
</clipPath>
</defs>
</svg>
