<svg width="15" height="15" viewBox="0 0 15 15" fill="none" xmlns="http://www.w3.org/2000/svg">
<g clip-path="url(#clip0_71_1024)">
<path d="M2.25 4.5C2.25 3.70435 2.56607 2.94129 3.12868 2.37868C3.69129 1.81607 4.45435 1.5 5.25 1.5C6.04565 1.5 6.80871 1.81607 7.37132 2.37868C7.93393 2.94129 8.25 3.70435 8.25 4.5C8.25 5.29565 7.93393 6.05871 7.37132 6.62132C6.80871 7.18393 6.04565 7.5 5.25 7.5C4.45435 7.5 3.69129 7.18393 3.12868 6.62132C2.56607 6.05871 2.25 5.29565 2.25 4.5ZM0 12.8039C0 10.4953 1.87031 8.625 4.17891 8.625H6.32109C8.62969 8.625 10.5 10.4953 10.5 12.8039C10.5 13.1883 10.1883 13.5 9.80391 13.5H0.696094C0.311719 13.5 0 13.1883 0 12.8039ZM11.8125 8.8125V7.3125H10.3125C10.0008 7.3125 9.75 7.06172 9.75 6.75C9.75 6.43828 10.0008 6.1875 10.3125 6.1875H11.8125V4.6875C11.8125 4.37578 12.0633 4.125 12.375 4.125C12.6867 4.125 12.9375 4.37578 12.9375 4.6875V6.1875H14.4375C14.7492 6.1875 15 6.43828 15 6.75C15 7.06172 14.7492 7.3125 14.4375 7.3125H12.9375V8.8125C12.9375 9.12422 12.6867 9.375 12.375 9.375C12.0633 9.375 11.8125 9.12422 11.8125 8.8125Z" fill="#2563EB"/>
</g>
<defs>
<clipPath id="clip0_71_1024">
<path d="M0 1.5H15V13.5H0V1.5Z" fill="white"/>
</clipPath>
</defs>
</svg>
