<svg width="11" height="15" viewBox="0 0 11 15" fill="none" xmlns="http://www.w3.org/2000/svg">
<g clip-path="url(#clip0_71_1027)">
<path d="M1.5 2.25C1.5 1.83516 1.16484 1.5 0.75 1.5C0.335156 1.5 0 1.83516 0 2.25V3V10.125V12.75C0 13.1648 0.335156 13.5 0.75 13.5C1.16484 13.5 1.5 13.1648 1.5 12.75V9.75L3.00703 9.37266C3.97031 9.13125 4.98984 9.24375 5.87813 9.68672C6.91406 10.2047 8.11641 10.268 9.19922 9.86016L10.0125 9.55547C10.3055 9.44531 10.5 9.16641 10.5 8.85234V3.04922C10.5 2.51016 9.93281 2.15859 9.45 2.4L9.225 2.5125C8.13984 3.05625 6.8625 3.05625 5.77734 2.5125C4.95469 2.1 4.01016 1.99688 3.11719 2.21953L1.5 2.625V2.25Z" fill="#F97316"/>
</g>
<defs>
<clipPath id="clip0_71_1027">
<path d="M0 1.5H10.5V13.5H0V1.5Z" fill="white"/>
</clipPath>
</defs>
</svg>
