<svg width="21" height="29" viewBox="0 0 21 29" fill="none" xmlns="http://www.w3.org/2000/svg">
<path d="M0 12.125C0 9.01719 2.51719 6.5 5.625 6.5H6C6.82969 6.5 7.5 7.17031 7.5 8C7.5 8.82969 6.82969 9.5 6 9.5H5.625C4.17656 9.5 3 10.6766 3 12.125V12.5H6C7.65469 12.5 9 13.8453 9 15.5V18.5C9 20.1547 7.65469 21.5 6 21.5H3C1.34531 21.5 0 20.1547 0 18.5V17V15.5V12.125ZM12 12.125C12 9.01719 14.5172 6.5 17.625 6.5H18C18.8297 6.5 19.5 7.17031 19.5 8C19.5 8.82969 18.8297 9.5 18 9.5H17.625C16.1766 9.5 15 10.6766 15 12.125V12.5H18C19.6547 12.5 21 13.8453 21 15.5V18.5C21 20.1547 19.6547 21.5 18 21.5H15C13.3453 21.5 12 20.1547 12 18.5V17V15.5V12.125Z" fill="#2563EB"/>
</svg>
