<svg width="12" height="15" viewBox="0 0 12 15" fill="none" xmlns="http://www.w3.org/2000/svg">
<g clip-path="url(#clip0_71_1084)">
<path d="M12.0002 7.125C12.0002 9.81797 9.31427 12 6.00021 12C5.13068 12 4.30568 11.85 3.56036 11.5805C3.28146 11.7844 2.82677 12.0633 2.28771 12.2977C1.72521 12.5414 1.04786 12.75 0.375207 12.75C0.222863 12.75 0.0869255 12.6586 0.0283318 12.518C-0.030262 12.3773 0.00255051 12.218 0.108019 12.1102L0.115051 12.1031C0.122082 12.0961 0.131457 12.0867 0.145519 12.0703C0.171301 12.0422 0.211144 11.9977 0.260363 11.9367C0.356457 11.8195 0.485363 11.6461 0.616613 11.4305C0.850988 11.0414 1.07364 10.5305 1.11818 9.95625C0.415051 9.15937 0.00020676 8.18203 0.00020676 7.125C0.00020676 4.43203 2.68614 2.25 6.00021 2.25C9.31427 2.25 12.0002 4.43203 12.0002 7.125Z" fill="#22C55E"/>
</g>
<defs>
<clipPath id="clip0_71_1084">
<path d="M0 1.5H12V13.5H0V1.5Z" fill="white"/>
</clipPath>
</defs>
</svg>
