<svg width="13" height="20" viewBox="0 0 13 20" fill="none" xmlns="http://www.w3.org/2000/svg">
<g clip-path="url(#clip0_71_1360)">
<path d="M1.75 3.625C1.75 3.14102 1.35898 2.75 0.875 2.75C0.391016 2.75 0 3.14102 0 3.625V4.5V12.8125V15.875C0 16.359 0.391016 16.75 0.875 16.75C1.35898 16.75 1.75 16.359 1.75 15.875V12.375L3.5082 11.9348C4.63203 11.6531 5.82148 11.7844 6.85781 12.3012C8.06641 12.9055 9.46914 12.9793 10.7324 12.5035L11.6813 12.148C12.023 12.0195 12.25 11.6941 12.25 11.3277V4.55742C12.25 3.92852 11.5883 3.51836 11.025 3.8L10.7625 3.93125C9.49648 4.56563 8.00625 4.56563 6.74023 3.93125C5.78047 3.45 4.67852 3.32969 3.63672 3.58945L1.75 4.0625V3.625Z" fill="#2563EB"/>
</g>
<defs>
<clipPath id="clip0_71_1360">
<path d="M0 2.75H12.25V16.75H0V2.75Z" fill="white"/>
</clipPath>
</defs>
</svg>
