<svg width="13" height="20" viewBox="0 0 13 20" fill="none" xmlns="http://www.w3.org/2000/svg">
<g clip-path="url(#clip0_71_1362)">
<path d="M2.625 3.625V4.5H1.3125C0.587891 4.5 0 5.08789 0 5.8125V7.125H12.25V5.8125C12.25 5.08789 11.6621 4.5 10.9375 4.5H9.625V3.625C9.625 3.14102 9.23398 2.75 8.75 2.75C8.26602 2.75 7.875 3.14102 7.875 3.625V4.5H4.375V3.625C4.375 3.14102 3.98398 2.75 3.5 2.75C3.01602 2.75 2.625 3.14102 2.625 3.625ZM12.25 8H0V15.4375C0 16.1621 0.587891 16.75 1.3125 16.75H10.9375C11.6621 16.75 12.25 16.1621 12.25 15.4375V8Z" fill="#2563EB"/>
</g>
<defs>
<clipPath id="clip0_71_1362">
<path d="M0 2.75H12.25V16.75H0V2.75Z" fill="white"/>
</clipPath>
</defs>
</svg>
