<svg width="14" height="20" viewBox="0 0 14 20" fill="none" xmlns="http://www.w3.org/2000/svg">
<g clip-path="url(#clip0_71_1364)">
<path d="M7.87492 3.625C7.87492 3.14102 7.48391 2.75 6.99992 2.75C6.51594 2.75 6.12492 3.14102 6.12492 3.625V9.3125C6.12492 9.55312 5.92805 9.75 5.68742 9.75C5.4468 9.75 5.24992 9.55312 5.24992 9.3125V4.5C5.24992 4.01602 4.85891 3.625 4.37492 3.625C3.89094 3.625 3.49992 4.01602 3.49992 4.5V11.9375C3.49992 11.9785 3.49992 12.0223 3.50266 12.0633L1.84836 10.4883C1.41086 10.0727 0.719062 10.0891 0.300703 10.5266C-0.117656 10.9641 -0.0985159 11.6559 0.338984 12.0742L3.41242 15C4.59094 16.1238 6.15773 16.75 7.78742 16.75H8.31242C10.9702 16.75 13.1249 14.5953 13.1249 11.9375V6.25C13.1249 5.76602 12.7339 5.375 12.2499 5.375C11.7659 5.375 11.3749 5.76602 11.3749 6.25V9.3125C11.3749 9.55312 11.178 9.75 10.9374 9.75C10.6968 9.75 10.4999 9.55312 10.4999 9.3125V4.5C10.4999 4.01602 10.1089 3.625 9.62492 3.625C9.14094 3.625 8.74992 4.01602 8.74992 4.5V9.3125C8.74992 9.55312 8.55305 9.75 8.31242 9.75C8.0718 9.75 7.87492 9.55312 7.87492 9.3125V3.625Z" fill="#2563EB"/>
</g>
<defs>
<clipPath id="clip0_71_1364">
<path d="M0 2.75H14V16.75H0V2.75Z" fill="white"/>
</clipPath>
</defs>
</svg>
