<svg width="14" height="20" viewBox="0 0 14 20" fill="none" xmlns="http://www.w3.org/2000/svg">
<g clip-path="url(#clip0_71_1368)">
<path d="M9.91739 3.27832L8.59395 4.60176L12.1486 8.15645L13.4721 6.83301C14.1557 6.14941 14.1557 5.04199 13.4721 4.3584L12.3947 3.27832C11.7111 2.59473 10.6037 2.59473 9.92012 3.27832H9.91739ZM7.97598 5.21973L1.60215 11.5963C1.31778 11.8807 1.10997 12.2334 0.995123 12.6189L0.0271542 15.9084C-0.0412051 16.1408 0.0216855 16.3896 0.191217 16.5592C0.360748 16.7287 0.609576 16.7916 0.839264 16.726L4.12872 15.758C4.51426 15.6432 4.867 15.4354 5.15137 15.151L11.5307 8.77441L7.97598 5.21973Z" fill="#2563EB"/>
</g>
<defs>
<clipPath id="clip0_71_1368">
<path d="M0 2.75H14V16.75H0V2.75Z" fill="white"/>
</clipPath>
</defs>
</svg>
