<svg width="36" height="36" viewBox="0 0 36 36" fill="none" xmlns="http://www.w3.org/2000/svg">
<g clip-path="url(#clip0_18_3748)">
<path d="M25.4967 15.2063C25.5967 15.4781 25.5123 15.7812 25.2967 15.975L23.9436 17.2063C23.9779 17.4656 23.9967 17.7312 23.9967 18C23.9967 18.2688 23.9779 18.5344 23.9436 18.7937L25.2967 20.025C25.5123 20.2187 25.5967 20.5219 25.4967 20.7937C25.3592 21.1656 25.1936 21.5219 25.0029 21.8656L24.8561 22.1187C24.6498 22.4625 24.4186 22.7875 24.1654 23.0938C23.9811 23.3187 23.6748 23.3937 23.3998 23.3062L21.6592 22.7531C21.2404 23.075 20.7779 23.3438 20.2842 23.5469L19.8936 25.3313C19.8311 25.6156 19.6123 25.8406 19.3248 25.8875C18.8936 25.9594 18.4498 25.9969 17.9967 25.9969C17.5436 25.9969 17.0998 25.9594 16.6686 25.8875C16.3811 25.8406 16.1623 25.6156 16.0998 25.3313L15.7092 23.5469C15.2154 23.3438 14.7529 23.075 14.3342 22.7531L12.5967 23.3094C12.3217 23.3969 12.0154 23.3188 11.8311 23.0969C11.5779 22.7906 11.3467 22.4656 11.1404 22.1219L10.9936 21.8687C10.8029 21.525 10.6373 21.1687 10.4998 20.7969C10.3998 20.525 10.4842 20.2219 10.6998 20.0281L12.0529 18.7969C12.0186 18.5344 11.9998 18.2688 11.9998 18C11.9998 17.7312 12.0186 17.4656 12.0529 17.2063L10.6998 15.975C10.4842 15.7812 10.3998 15.4781 10.4998 15.2063C10.6373 14.8344 10.8029 14.4781 10.9936 14.1344L11.1404 13.8812C11.3467 13.5375 11.5779 13.2125 11.8311 12.9062C12.0154 12.6813 12.3217 12.6062 12.5967 12.6937L14.3373 13.2469C14.7561 12.925 15.2186 12.6562 15.7123 12.4531L16.1029 10.6687C16.1654 10.3844 16.3842 10.1594 16.6717 10.1125C17.1029 10.0375 17.5467 10 17.9998 10C18.4529 10 18.8967 10.0375 19.3279 10.1094C19.6154 10.1562 19.8342 10.3812 19.8967 10.6656L20.2873 12.45C20.7811 12.6531 21.2436 12.9219 21.6623 13.2438L23.4029 12.6906C23.6779 12.6031 23.9842 12.6813 24.1686 12.9031C24.4217 13.2094 24.6529 13.5344 24.8592 13.8781L25.0061 14.1312C25.1967 14.475 25.3623 14.8313 25.4998 15.2031L25.4967 15.2063ZM17.9998 20.5C18.6629 20.5 19.2987 20.2366 19.7676 19.7678C20.2364 19.2989 20.4998 18.663 20.4998 18C20.4998 17.337 20.2364 16.7011 19.7676 16.2322C19.2987 15.7634 18.6629 15.5 17.9998 15.5C17.3368 15.5 16.7009 15.7634 16.232 16.2322C15.7632 16.7011 15.4998 17.337 15.4998 18C15.4998 18.663 15.7632 19.2989 16.232 19.7678C16.7009 20.2366 17.3368 20.5 17.9998 20.5Z" fill="#4B5563"/>
</g>
<defs>
<clipPath id="clip0_18_3748">
<path d="M10 10H26V26H10V10Z" fill="white"/>
</clipPath>
</defs>
</svg>
