<svg width="34" height="36" viewBox="0 0 34 36" fill="none" xmlns="http://www.w3.org/2000/svg">
<path d="M8 0.5H25.5C29.6421 0.5 33 3.85786 33 8V28C33 32.1421 29.6421 35.5 25.5 35.5H8C3.85786 35.5 0.5 32.1421 0.5 28V8C0.5 3.85786 3.85786 0.5 8 0.5Z" stroke="#D1D5DB"/>
<g clip-path="url(#clip0_18_4253)">
<path d="M13.2202 17.9701C12.9272 18.2631 12.9272 18.7389 13.2202 19.0318L17.7202 23.5318C18.0132 23.8248 18.489 23.8248 18.7819 23.5318C19.0749 23.2389 19.0749 22.7631 18.7819 22.4701L14.8116 18.4998L18.7796 14.5295C19.0726 14.2365 19.0726 13.7607 18.7796 13.4678C18.4866 13.1748 18.0108 13.1748 17.7179 13.4678L13.2179 17.9678L13.2202 17.9701Z" fill="#374151"/>
</g>
<defs>
<clipPath id="clip0_18_4253">
<path d="M13 12.5H20.5V24.5H13V12.5Z" fill="white"/>
</clipPath>
</defs>
</svg>
