<svg width="34" height="36" viewBox="0 0 34 36" fill="none" xmlns="http://www.w3.org/2000/svg">
<path d="M8 0.5H25.5C29.6421 0.5 33 3.85786 33 8V28C33 32.1421 29.6421 35.5 25.5 35.5H8C3.85786 35.5 0.5 32.1421 0.5 28V8C0.5 3.85786 3.85786 0.5 8 0.5Z" stroke="#D1D5DB"/>
<path d="M20.2795 17.9701C20.5725 18.2631 20.5725 18.7389 20.2795 19.0318L15.7795 23.5318C15.4865 23.8248 15.0107 23.8248 14.7178 23.5318C14.4248 23.2389 14.4248 22.7631 14.7178 22.4701L18.6881 18.4998L14.7201 14.5295C14.4271 14.2365 14.4271 13.7607 14.7201 13.4678C15.0131 13.1748 15.4889 13.1748 15.7818 13.4678L20.2818 17.9678L20.2795 17.9701Z" fill="#374151"/>
</svg>
