<svg width="36" height="36" viewBox="0 0 36 36" fill="none" xmlns="http://www.w3.org/2000/svg">
<g clip-path="url(#clip0_18_3742)">
<path d="M17.9999 10C17.4468 10 16.9999 10.4469 16.9999 11V11.6C14.7186 12.0625 12.9999 14.0812 12.9999 16.5V17.0875C12.9999 18.5563 12.4593 19.975 11.4843 21.075L11.253 21.3344C10.9905 21.6281 10.928 22.05 11.0874 22.4094C11.2468 22.7688 11.6061 23 11.9999 23H23.9999C24.3936 23 24.7499 22.7688 24.9124 22.4094C25.0749 22.05 25.0093 21.6281 24.7468 21.3344L24.5155 21.075C23.5405 19.975 22.9999 18.5594 22.9999 17.0875V16.5C22.9999 14.0812 21.2811 12.0625 18.9999 11.6V11C18.9999 10.4469 18.553 10 17.9999 10ZM19.4155 25.4156C19.7905 25.0406 19.9999 24.5312 19.9999 24H17.9999H15.9999C15.9999 24.5312 16.2093 25.0406 16.5843 25.4156C16.9593 25.7906 17.4686 26 17.9999 26C18.5311 26 19.0405 25.7906 19.4155 25.4156Z" fill="#4B5563"/>
</g>
<defs>
<clipPath id="clip0_18_3742">
<path d="M11 10H25V26H11V10Z" fill="white"/>
</clipPath>
</defs>
</svg>
