<svg width="24" height="24" viewBox="0 0 24 24" fill="none" xmlns="http://www.w3.org/2000/svg">
<path d="M12 0C18.6274 0 24 5.37258 24 12C24 18.6274 18.6274 24 12 24C5.37258 24 0 18.6274 0 12C0 5.37258 5.37258 0 12 0Z" fill="#E5E7EB"/>
<g clip-path="url(#clip0_18_4212)">
<path d="M12 11.5C12.7956 11.5 13.5587 11.1839 14.1213 10.6213C14.6839 10.0587 15 9.29565 15 8.5C15 7.70435 14.6839 6.94129 14.1213 6.37868C13.5587 5.81607 12.7956 5.5 12 5.5C11.2044 5.5 10.4413 5.81607 9.87868 6.37868C9.31607 6.94129 9 7.70435 9 8.5C9 9.29565 9.31607 10.0587 9.87868 10.6213C10.4413 11.1839 11.2044 11.5 12 11.5ZM10.9289 12.625C8.62031 12.625 6.75 14.4953 6.75 16.8039C6.75 17.1883 7.06172 17.5 7.44609 17.5H16.5539C16.9383 17.5 17.25 17.1883 17.25 16.8039C17.25 14.4953 15.3797 12.625 13.0711 12.625H10.9289Z" fill="#6B7280"/>
</g>
<defs>
<clipPath id="clip0_18_4212">
<path d="M6.75 5.5H17.25V17.5H6.75V5.5Z" fill="white"/>
</clipPath>
</defs>
</svg>
