<svg width="32" height="32" viewBox="0 0 32 32" fill="none" xmlns="http://www.w3.org/2000/svg">
<path d="M16 0C24.8366 0 32 7.16344 32 16C32 24.8366 24.8366 32 16 32C7.16344 32 0 24.8366 0 16C0 7.16344 7.16344 0 16 0Z" fill="#FFEDD5"/>
<g clip-path="url(#clip0_18_4941)">
<path d="M11.625 9.625C11.625 9.14102 11.234 8.75 10.75 8.75C10.266 8.75 9.875 9.14102 9.875 9.625V10.5V18.8125V21.875C9.875 22.359 10.266 22.75 10.75 22.75C11.234 22.75 11.625 22.359 11.625 21.875V18.375L13.3832 17.9348C14.507 17.6531 15.6965 17.7844 16.7328 18.3012C17.9414 18.9055 19.3441 18.9793 20.6074 18.5035L21.5563 18.148C21.898 18.0195 22.125 17.6941 22.125 17.3277V10.5574C22.125 9.92852 21.4633 9.51836 20.9 9.8L20.6375 9.93125C19.3715 10.5656 17.8812 10.5656 16.6152 9.93125C15.6555 9.45 14.5535 9.32969 13.5117 9.58945L11.625 10.0625V9.625Z" fill="#EA580C"/>
</g>
<defs>
<clipPath id="clip0_18_4941">
<path d="M9.875 8.75H22.125V22.75H9.875V8.75Z" fill="white"/>
</clipPath>
</defs>
</svg>
