<svg width="32" height="32" viewBox="0 0 32 32" fill="none" xmlns="http://www.w3.org/2000/svg">
<path d="M16 0C24.8366 0 32 7.16344 32 16C32 24.8366 24.8366 32 16 32C7.16344 32 0 24.8366 0 16C0 7.16344 7.16344 0 16 0Z" fill="#F3F4F6"/>
<path d="M16 0C24.8366 0 32 7.16344 32 16C32 24.8366 24.8366 32 16 32C7.16344 32 0 24.8366 0 16C0 7.16344 7.16344 0 16 0Z" stroke="#E5E7EB"/>
<path d="M22.125 26H9.875V6H22.125V26Z" stroke="#E5E7EB"/>
<g clip-path="url(#clip0_18_4981)">
<path d="M9.875 10.9377V15.0256C9.875 15.4904 10.0582 15.9361 10.3863 16.2643L15.1988 21.0768C15.8824 21.7604 16.9898 21.7604 17.6734 21.0768L21.3238 17.4264C22.0074 16.7428 22.0074 15.6354 21.3238 14.9518L16.5113 10.1393C16.1832 9.81114 15.7375 9.62794 15.2727 9.62794H11.1875C10.4629 9.6252 9.875 10.2131 9.875 10.9377ZM12.9375 11.8127C13.1696 11.8127 13.3921 11.9049 13.5562 12.069C13.7203 12.2331 13.8125 12.4556 13.8125 12.6877C13.8125 12.9198 13.7203 13.1423 13.5562 13.3064C13.3921 13.4705 13.1696 13.5627 12.9375 13.5627C12.7054 13.5627 12.4829 13.4705 12.3188 13.3064C12.1547 13.1423 12.0625 12.9198 12.0625 12.6877C12.0625 12.4556 12.1547 12.2331 12.3188 12.069C12.4829 11.9049 12.7054 11.8127 12.9375 11.8127Z" fill="#4B5563"/>
</g>
<defs>
<clipPath id="clip0_18_4981">
<path d="M9.875 8.75H22.125V22.75H9.875V8.75Z" fill="white"/>
</clipPath>
</defs>
</svg>
