<svg width="32" height="32" viewBox="0 0 32 32" fill="none" xmlns="http://www.w3.org/2000/svg">
<path d="M16 0C24.8366 0 32 7.16344 32 16C32 24.8366 24.8366 32 16 32C7.16344 32 0 24.8366 0 16C0 7.16344 7.16344 0 16 0Z" fill="#DCFCE7"/>
<path d="M16 0C24.8366 0 32 7.16344 32 16C32 24.8366 24.8366 32 16 32C7.16344 32 0 24.8366 0 16C0 7.16344 7.16344 0 16 0Z" stroke="#E5E7EB"/>
<path d="M22.125 26H9.875V6H22.125V26Z" stroke="#E5E7EB"/>
<path d="M22.125 22.75H9.875V8.75H22.125V22.75Z" stroke="#E5E7EB"/>
<path d="M16.875 10.9375C16.875 10.4535 16.484 10.0625 16 10.0625C15.516 10.0625 15.125 10.4535 15.125 10.9375V14.875H11.1875C10.7035 14.875 10.3125 15.266 10.3125 15.75C10.3125 16.234 10.7035 16.625 11.1875 16.625H15.125V20.5625C15.125 21.0465 15.516 21.4375 16 21.4375C16.484 21.4375 16.875 21.0465 16.875 20.5625V16.625H20.8125C21.2965 16.625 21.6875 16.234 21.6875 15.75C21.6875 15.266 21.2965 14.875 20.8125 14.875H16.875V10.9375Z" fill="#16A34A"/>
</svg>
