<svg width="20" height="20" viewBox="0 0 20 20" fill="none" xmlns="http://www.w3.org/2000/svg">
<g clip-path="url(#clip0_18_3666)">
<path d="M15.7445 9.73633C15.7445 10.2285 15.3344 10.6141 14.8695 10.6141H13.9945L14.0137 14.9945C14.0137 15.0684 14.0082 15.1422 14 15.216V15.6562C14 16.2605 13.5105 16.75 12.9062 16.75H12.4688C12.4387 16.75 12.4086 16.75 12.3785 16.7473C12.3402 16.75 12.302 16.75 12.2637 16.75H11.375H10.7188C10.1145 16.75 9.625 16.2605 9.625 15.6562V15V13.25C9.625 12.766 9.23398 12.375 8.75 12.375H7C6.51602 12.375 6.125 12.766 6.125 13.25V15V15.6562C6.125 16.2605 5.63555 16.75 5.03125 16.75H4.375H3.50273C3.46172 16.75 3.4207 16.7473 3.37969 16.7445C3.34687 16.7473 3.31406 16.75 3.28125 16.75H2.84375C2.23945 16.75 1.75 16.2605 1.75 15.6562V12.5938C1.75 12.5691 1.75 12.5418 1.75273 12.5172V10.6141H0.875C0.382812 10.6141 0 10.2313 0 9.73633C0 9.49023 0.0820312 9.27148 0.273438 9.08008L7.28437 2.96875C7.47578 2.77734 7.69453 2.75 7.88594 2.75C8.07734 2.75 8.29609 2.80469 8.46016 2.94141L15.4437 9.08008C15.6625 9.27148 15.7719 9.49023 15.7445 9.73633Z" fill="#4B5563"/>
</g>
<defs>
<clipPath id="clip0_18_3666">
<path d="M0 2.75H15.75V16.75H0V2.75Z" fill="white"/>
</clipPath>
</defs>
</svg>
