<svg width="20" height="20" viewBox="0 0 20 20" fill="none" xmlns="http://www.w3.org/2000/svg">
<path d="M20 20H0V0H20V20Z" stroke="#E5E7EB"/>
<path d="M14 16.75H0V2.75H14V16.75Z" stroke="#E5E7EB"/>
<path d="M1.75 4.5C1.75 4.01602 1.35898 3.625 0.875 3.625C0.391016 3.625 0 4.01602 0 4.5V13.6875C0 14.8961 0.978906 15.875 2.1875 15.875H13.125C13.609 15.875 14 15.484 14 15C14 14.516 13.609 14.125 13.125 14.125H2.1875C1.94687 14.125 1.75 13.9281 1.75 13.6875V4.5ZM12.868 6.86797C13.2098 6.52617 13.2098 5.97109 12.868 5.6293C12.5262 5.2875 11.9711 5.2875 11.6293 5.6293L8.75 8.51133L7.18047 6.9418C6.83867 6.6 6.28359 6.6 5.9418 6.9418L2.8793 10.0043C2.5375 10.3461 2.5375 10.9012 2.8793 11.243C3.22109 11.5848 3.77617 11.5848 4.11797 11.243L6.5625 8.80117L8.13203 10.3707C8.47383 10.7125 9.02891 10.7125 9.3707 10.3707L12.8707 6.8707L12.868 6.86797Z" fill="#4B5563"/>
</svg>
