<svg width="34" height="36" viewBox="0 0 34 36" fill="none" xmlns="http://www.w3.org/2000/svg">
<path d="M8 0.5H25.5C29.6421 0.5 33 3.85786 33 8V28C33 32.1421 29.6421 35.5 25.5 35.5H8C3.85786 35.5 0.5 32.1421 0.5 28V8C0.5 3.85786 3.85786 0.5 8 0.5Z" stroke="#D1D5DB"/>
<path d="M20.5 26H13V11H20.5V26Z" stroke="#E5E7EB"/>
<g clip-path="url(#clip0_45_1234)">
<path d="M13.2207 17.9701C12.9277 18.2631 12.9277 18.7389 13.2207 19.0318L17.7207 23.5318C18.0137 23.8248 18.4895 23.8248 18.7824 23.5318C19.0754 23.2389 19.0754 22.7631 18.7824 22.4701L14.8121 18.4998L18.7801 14.5295C19.073 14.2365 19.073 13.7607 18.7801 13.4678C18.4871 13.1748 18.0113 13.1748 17.7184 13.4678L13.2184 17.9678L13.2207 17.9701Z" fill="#374151"/>
</g>
<defs>
<clipPath id="clip0_45_1234">
<path d="M13 12.5H20.5V24.5H13V12.5Z" fill="white"/>
</clipPath>
</defs>
</svg>
