<svg width="24" height="24" viewBox="0 0 24 24" fill="none" xmlns="http://www.w3.org/2000/svg">
<path fill-rule="evenodd" clip-rule="evenodd" d="M8.35087 7.22056C8.20268 7.07744 8.00421 6.99824 7.7982 7.00003C7.59219 7.00182 7.39512 7.08445 7.24944 7.23013C7.10376 7.37581 7.02113 7.57288 7.01934 7.77889C7.01755 7.9849 7.09675 8.18337 7.23987 8.33156L11.3987 12.4903L7.23987 16.6491C7.16483 16.7216 7.10497 16.8083 7.06379 16.9042C7.02261 17 7.00094 17.1031 7.00003 17.2075C6.99912 17.3118 7.019 17.4152 7.05851 17.5118C7.09802 17.6084 7.15636 17.6961 7.23013 17.7699C7.3039 17.8436 7.39163 17.902 7.48819 17.9415C7.58475 17.981 7.68822 18.0009 7.79254 18C7.89687 17.9991 7.99997 17.9774 8.09583 17.9362C8.19169 17.895 8.27839 17.8352 8.35087 17.7601L12.5097 13.6013L16.6684 17.7601C16.8166 17.9033 17.0151 17.9824 17.2211 17.9807C17.4271 17.9789 17.6242 17.8962 17.7699 17.7506C17.9155 17.6049 17.9982 17.4078 18 17.2018C18.0018 16.9958 17.9226 16.7973 17.7794 16.6491L13.6207 12.4903L17.7794 8.33156C17.9226 8.18337 18.0018 7.9849 18 7.77889C17.9982 7.57288 17.9155 7.37581 17.7699 7.23013C17.6242 7.08445 17.4271 7.00182 17.2211 7.00003C17.0151 6.99824 16.8166 7.07744 16.6684 7.22056L12.5097 11.3793L8.35087 7.22056Z" fill="black"/>
</svg>
