<svg width="64" height="64" viewBox="0 0 64 64" fill="none" xmlns="http://www.w3.org/2000/svg">
<path d="M32 0C49.6731 0 64 14.3269 64 32C64 49.6731 49.6731 64 32 64C14.3269 64 0 49.6731 0 32C0 14.3269 14.3269 0 32 0Z" fill="url(#paint0_linear_18_999)"/>


<g clip-path="url(#clip0_18_999)">
<path d="M21.5 25C21.5 23.4087 22.1321 21.8826 23.2574 20.7574C24.3826 19.6321 25.9087 19 27.5 19C29.0913 19 30.6174 19.6321 31.7426 20.7574C32.8679 21.8826 33.5 23.4087 33.5 25C33.5 26.5913 32.8679 28.1174 31.7426 29.2426C30.6174 30.3679 29.0913 31 27.5 31C25.9087 31 24.3826 30.3679 23.2574 29.2426C22.1321 28.1174 21.5 26.5913 21.5 25ZM17 41.6078C17 36.9906 20.7406 33.25 25.3578 33.25H29.6422C34.2594 33.25 38 36.9906 38 41.6078C38 42.3766 37.3766 43 36.6078 43H18.3922C17.6234 43 17 42.3766 17 41.6078ZM40.625 33.625V30.625H37.625C37.0016 30.625 36.5 30.1234 36.5 29.5C36.5 28.8766 37.0016 28.375 37.625 28.375H40.625V25.375C40.625 24.7516 41.1266 24.25 41.75 24.25C42.3734 24.25 42.875 24.7516 42.875 25.375V28.375H45.875C46.4984 28.375 47 28.8766 47 29.5C47 30.1234 46.4984 30.625 45.875 30.625H42.875V33.625C42.875 34.2484 42.3734 34.75 41.75 34.75C41.1266 34.75 40.625 34.2484 40.625 33.625Z" fill="white"/>
</g>
<defs>
<linearGradient id="paint0_linear_18_999" x1="0" y1="32" x2="64" y2="32" gradientUnits="userSpaceOnUse">
<stop stop-color="#2563EB"/>
<stop offset="1" stop-color="#4F46E5"/>
</linearGradient>
<clipPath id="clip0_18_999">
<path d="M17 19H47V43H17V19Z" fill="white"/>
</clipPath>
</defs>
</svg>
