<svg width="32" height="32" viewBox="0 0 32 32" fill="none" xmlns="http://www.w3.org/2000/svg">
<path d="M24 0C28.4183 0 32 3.58172 32 8V24C32 28.4183 28.4183 32 24 32H8C3.58172 32 0 28.4183 0 24V8C0 3.58172 3.58172 0 8 0H24Z" fill="#2563EB"/>
<path d="M24 0C28.4183 0 32 3.58172 32 8V24C32 28.4183 28.4183 32 24 32H8C3.58172 32 0 28.4183 0 24V8C0 3.58172 3.58172 0 8 0H24Z" stroke="#E5E7EB"/>
<path d="M23.875 26H8.125V6H23.875V26Z" stroke="#E5E7EB"/>
<g clip-path="url(#clip0_45_314)">
<path d="M15.3574 8.89248C15.7648 8.70381 16.2352 8.70381 16.6426 8.89248L22.6199 11.6542C22.8523 11.7608 23 11.9933 23 12.2503C23 12.5073 22.8523 12.7397 22.6199 12.8464L16.6426 15.6081C16.2352 15.7968 15.7648 15.7968 15.3574 15.6081L9.38008 12.8464C9.14766 12.737 9 12.5046 9 12.2503C9 11.996 9.14766 11.7608 9.38008 11.6542L15.3574 8.89248ZM21.1652 14.4815L22.6199 15.1542C22.8523 15.2608 23 15.4933 23 15.7503C23 16.0073 22.8523 16.2397 22.6199 16.3464L16.6426 19.1081C16.2352 19.2968 15.7648 19.2968 15.3574 19.1081L9.38008 16.3464C9.14766 16.237 9 16.0046 9 15.7503C9 15.496 9.14766 15.2608 9.38008 15.1542L10.8348 14.4815L14.991 16.4011C15.6309 16.6964 16.3691 16.6964 17.009 16.4011L21.1652 14.4815ZM17.009 19.9011L21.1652 17.9815L22.6199 18.6542C22.8523 18.7608 23 18.9933 23 19.2503C23 19.5073 22.8523 19.7397 22.6199 19.8464L16.6426 22.6081C16.2352 22.7968 15.7648 22.7968 15.3574 22.6081L9.38008 19.8464C9.14766 19.737 9 19.5046 9 19.2503C9 18.996 9.14766 18.7608 9.38008 18.6542L10.8348 17.9815L14.991 19.9011C15.6309 20.1964 16.3691 20.1964 17.009 19.9011Z" fill="white"/>
</g>
<defs>
<clipPath id="clip0_45_314">
<path d="M8.125 8.75H23.875V22.75H8.125V8.75Z" fill="white"/>
</clipPath>
</defs>
</svg>
