<svg width="36" height="36" viewBox="0 0 36 36" fill="none" xmlns="http://www.w3.org/2000/svg">
<g clip-path="url(#clip0_54_18)">
<path d="M27.7445 17.7363C27.7445 18.2285 27.3344 18.6141 26.8695 18.6141H25.9945L26.0137 22.9945C26.0137 23.0684 26.0082 23.1422 26 23.216V23.6562C26 24.2605 25.5105 24.75 24.9062 24.75H24.4688C24.4387 24.75 24.4086 24.75 24.3785 24.7473C24.3402 24.75 24.302 24.75 24.2637 24.75H23.375H22.7188C22.1145 24.75 21.625 24.2605 21.625 23.6562V23V21.25C21.625 20.766 21.234 20.375 20.75 20.375H19C18.516 20.375 18.125 20.766 18.125 21.25V23V23.6562C18.125 24.2605 17.6355 24.75 17.0312 24.75H16.375H15.5027C15.4617 24.75 15.4207 24.7473 15.3797 24.7445C15.3469 24.7473 15.3141 24.75 15.2812 24.75H14.8438C14.2395 24.75 13.75 24.2605 13.75 23.6562V20.5938C13.75 20.5691 13.75 20.5418 13.7527 20.5172V18.6141H12.875C12.3828 18.6141 12 18.2312 12 17.7363C12 17.4902 12.082 17.2715 12.2734 17.0801L19.2844 10.9688C19.4758 10.7773 19.6945 10.75 19.8859 10.75C20.0773 10.75 20.2961 10.8047 20.4602 10.9414L27.4437 17.0801C27.6625 17.2715 27.7719 17.4902 27.7445 17.7363Z" fill="#4B5563"/>
</g>
<defs>
<clipPath id="clip0_54_18">
<path d="M12 10.75H27.75V24.75H12V10.75Z" fill="white"/>
</clipPath>
</defs>
</svg>
