<svg width="36" height="36" viewBox="0 0 36 36" fill="none" xmlns="http://www.w3.org/2000/svg">
<path d="M36 36H0V0H36V36Z" stroke="#E5E7EB"/>
<path d="M28 0C32.4183 0 36 3.58172 36 8V28C36 32.4183 32.4183 36 28 36H8C3.58172 36 3.22139e-08 32.4183 0 28V8C0 3.58172 3.58172 3.22128e-08 8 0H28Z" stroke="#E5E7EB"/>
<path d="M25 30H11V6H25V30Z" stroke="#E5E7EB"/>
<g clip-path="url(#clip0_45_401)">
<path d="M18.0004 10C17.4473 10 17.0004 10.4469 17.0004 11V11.6C14.7191 12.0625 13.0004 14.0813 13.0004 16.5V17.0875C13.0004 18.5562 12.4598 19.975 11.4848 21.075L11.2535 21.3344C10.991 21.6281 10.9285 22.05 11.0879 22.4094C11.2473 22.7688 11.6066 23 12.0004 23H24.0004C24.3941 23 24.7504 22.7688 24.9129 22.4094C25.0754 22.05 25.0098 21.6281 24.7473 21.3344L24.516 21.075C23.541 19.975 23.0004 18.5594 23.0004 17.0875V16.5C23.0004 14.0813 21.2816 12.0625 19.0004 11.6V11C19.0004 10.4469 18.5535 10 18.0004 10ZM19.416 25.4156C19.791 25.0406 20.0004 24.5312 20.0004 24H18.0004H16.0004C16.0004 24.5312 16.2098 25.0406 16.5848 25.4156C16.9598 25.7906 17.4691 26 18.0004 26C18.5316 26 19.041 25.7906 19.416 25.4156Z" fill="#4B5563"/>
</g>
<defs>
<clipPath id="clip0_45_401">
<path d="M11 10H25V26H11V10Z" fill="white"/>
</clipPath>
</defs>
</svg>
