<svg width="36" height="36" viewBox="0 0 36 36" fill="none" xmlns="http://www.w3.org/2000/svg">
<path d="M28 0C32.4183 0 36 3.58172 36 8V28C36 32.4183 32.4183 36 28 36H8C3.58172 36 0 32.4183 0 28V8C0 3.58172 3.58172 0 8 0H28Z" fill="#EFF6FF"/>
<g clip-path="url(#clip0_54_25)">
<path d="M12.75 24.125H23.25C24.2152 24.125 25 23.3402 25 22.375V15.375C25 14.4098 24.2152 13.625 23.25 13.625H18.875C18.5988 13.625 18.3391 13.4965 18.175 13.275L17.65 12.575C17.3191 12.1348 16.7996 11.875 16.25 11.875H12.75C11.7848 11.875 11 12.6598 11 13.625V22.375C11 23.3402 11.7848 24.125 12.75 24.125Z" fill="#2563EB"/>
</g>
<defs>
<clipPath id="clip0_54_25">
<path d="M11 11H25V25H11V11Z" fill="white"/>
</clipPath>
</defs>
</svg>
