<svg width="36" height="36" viewBox="0 0 36 36" fill="none" xmlns="http://www.w3.org/2000/svg">
<g clip-path="url(#clip0_54_32)">
<path d="M15.9375 10.75C16.5177 10.75 17.0741 10.9805 17.4843 11.3907C17.8945 11.8009 18.125 12.3573 18.125 12.9375C18.125 13.5177 17.8945 14.0741 17.4843 14.4843C17.0741 14.8945 16.5177 15.125 15.9375 15.125C15.3573 15.125 14.8009 14.8945 14.3907 14.4843C13.9805 14.0741 13.75 13.5177 13.75 12.9375C13.75 12.3573 13.9805 11.8009 14.3907 11.3907C14.8009 10.9805 15.3573 10.75 15.9375 10.75ZM26 10.75C26.5802 10.75 27.1366 10.9805 27.5468 11.3907C27.957 11.8009 28.1875 12.3573 28.1875 12.9375C28.1875 13.5177 27.957 14.0741 27.5468 14.4843C27.1366 14.8945 26.5802 15.125 26 15.125C25.4198 15.125 24.8634 14.8945 24.4532 14.4843C24.043 14.0741 23.8125 13.5177 23.8125 12.9375C23.8125 12.3573 24.043 11.8009 24.4532 11.3907C24.8634 10.9805 25.4198 10.75 26 10.75ZM12 18.9176C12 17.307 13.307 16 14.9176 16H16.0852C16.5199 16 16.9328 16.0957 17.3047 16.2652C17.2691 16.4621 17.2527 16.6672 17.2527 16.875C17.2527 17.9195 17.7121 18.8574 18.4367 19.5C18.4312 19.5 18.4258 19.5 18.4176 19.5H12.5824C12.2625 19.5 12 19.2375 12 18.9176ZM23.0824 19.5C23.077 19.5 23.0715 19.5 23.0633 19.5C23.7906 18.8574 24.2473 17.9195 24.2473 16.875C24.2473 16.6672 24.2281 16.4648 24.1953 16.2652C24.5672 16.093 24.9801 16 25.4148 16H26.5824C28.193 16 29.5 17.307 29.5 18.9176C29.5 19.2402 29.2375 19.5 28.9176 19.5H23.0824ZM18.125 16.875C18.125 16.1788 18.4016 15.5111 18.8938 15.0188C19.3861 14.5266 20.0538 14.25 20.75 14.25C21.4462 14.25 22.1139 14.5266 22.6062 15.0188C23.0984 15.5111 23.375 16.1788 23.375 16.875C23.375 17.5712 23.0984 18.2389 22.6062 18.7312C22.1139 19.2234 21.4462 19.5 20.75 19.5C20.0538 19.5 19.3861 19.2234 18.8938 18.7312C18.4016 18.2389 18.125 17.5712 18.125 16.875ZM15.5 24.0199C15.5 22.0074 17.1324 20.375 19.1449 20.375H22.3551C24.3676 20.375 26 22.0074 26 24.0199C26 24.4219 25.6746 24.75 25.2699 24.75H16.2301C15.8281 24.75 15.5 24.4246 15.5 24.0199Z" fill="#4B5563"/>
</g>
<defs>
<clipPath id="clip0_54_32">
<path d="M12 10.75H29.5V24.75H12V10.75Z" fill="white"/>
</clipPath>
</defs>
</svg>
