<svg width="36" height="36" viewBox="0 0 36 36" fill="none" xmlns="http://www.w3.org/2000/svg">
<path d="M13.75 12.5C13.75 12.016 13.359 11.625 12.875 11.625C12.391 11.625 12 12.016 12 12.5V21.6875C12 22.8961 12.9789 23.875 14.1875 23.875H25.125C25.609 23.875 26 23.484 26 23C26 22.516 25.609 22.125 25.125 22.125H14.1875C13.9469 22.125 13.75 21.9281 13.75 21.6875V12.5ZM24.868 14.868C25.2098 14.5262 25.2098 13.9711 24.868 13.6293C24.5262 13.2875 23.9711 13.2875 23.6293 13.6293L20.75 16.5113L19.1805 14.9418C18.8387 14.6 18.2836 14.6 17.9418 14.9418L14.8793 18.0043C14.5375 18.3461 14.5375 18.9012 14.8793 19.243C15.2211 19.5848 15.7762 19.5848 16.118 19.243L18.5625 16.8012L20.132 18.3707C20.4738 18.7125 21.0289 18.7125 21.3707 18.3707L24.8707 14.8707L24.868 14.868Z" fill="#4B5563"/>
</svg>
