<svg width="36" height="36" viewBox="0 0 36 36" fill="none" xmlns="http://www.w3.org/2000/svg">
<g clip-path="url(#clip0_54_46)">
<path d="M25.5597 15.3055C25.6472 15.5434 25.5734 15.8086 25.3847 15.9781L24.2007 17.0555C24.2308 17.2824 24.2472 17.5148 24.2472 17.75C24.2472 17.9852 24.2308 18.2176 24.2007 18.4445L25.3847 19.5219C25.5734 19.6914 25.6472 19.9566 25.5597 20.1945C25.4394 20.5199 25.2945 20.8316 25.1277 21.1324L24.9992 21.3539C24.8187 21.6547 24.6164 21.9391 24.3949 22.207C24.2336 22.4039 23.9656 22.4695 23.725 22.393L22.2019 21.909C21.8355 22.1906 21.4308 22.4258 20.9988 22.6035L20.657 24.1648C20.6023 24.4137 20.4109 24.6105 20.1593 24.6516C19.782 24.7145 19.3937 24.7473 18.9972 24.7473C18.6007 24.7473 18.2125 24.7145 17.8351 24.6516C17.5836 24.6105 17.3921 24.4137 17.3375 24.1648L16.9957 22.6035C16.5636 22.4258 16.1589 22.1906 15.7925 21.909L14.2722 22.3957C14.0316 22.4723 13.7636 22.4039 13.6023 22.2098C13.3808 21.9418 13.1785 21.6574 12.998 21.3566L12.8695 21.1352C12.7027 20.8344 12.5578 20.5227 12.4375 20.1973C12.35 19.9594 12.4238 19.6941 12.6125 19.5246L13.7964 18.4473C13.7664 18.2176 13.75 17.9852 13.75 17.75C13.75 17.5148 13.7664 17.2824 13.7964 17.0555L12.6125 15.9781C12.4238 15.8086 12.35 15.5434 12.4375 15.3055C12.5578 14.9801 12.7027 14.6684 12.8695 14.3676L12.998 14.1461C13.1785 13.8453 13.3808 13.5609 13.6023 13.293C13.7636 13.0961 14.0316 13.0305 14.2722 13.107L15.7953 13.591C16.1617 13.3094 16.5664 13.0742 16.9984 12.8965L17.3402 11.3352C17.3949 11.0863 17.5863 10.8895 17.8378 10.8484C18.2152 10.7828 18.6035 10.75 19 10.75C19.3964 10.75 19.7847 10.7828 20.1621 10.8457C20.4136 10.8867 20.605 11.0836 20.6597 11.3324L21.0015 12.8937C21.4336 13.0715 21.8382 13.3066 22.2046 13.5883L23.7277 13.1043C23.9683 13.0277 24.2363 13.0961 24.3976 13.2902C24.6191 13.5582 24.8214 13.8426 25.0019 14.1434L25.1304 14.3648C25.2972 14.6656 25.4421 14.9773 25.5625 15.3027L25.5597 15.3055ZM19 19.9375C19.5801 19.9375 20.1365 19.707 20.5468 19.2968C20.957 18.8866 21.1875 18.3302 21.1875 17.75C21.1875 17.1698 20.957 16.6134 20.5468 16.2032C20.1365 15.793 19.5801 15.5625 19 15.5625C18.4198 15.5625 17.8634 15.793 17.4532 16.2032C17.0429 16.6134 16.8125 17.1698 16.8125 17.75C16.8125 18.3302 17.0429 18.8866 17.4532 19.2968C17.8634 19.707 18.4198 19.9375 19 19.9375Z" fill="#4B5563"/>
</g>
<defs>
<clipPath id="clip0_54_46">
<path d="M12 10.75H26V24.75H12V10.75Z" fill="white"/>
</clipPath>
</defs>
</svg>
