<svg width="32" height="32" viewBox="0 0 32 32" fill="none" xmlns="http://www.w3.org/2000/svg">
<path d="M16 0C24.8366 0 32 7.16344 32 16C32 24.8366 24.8366 32 16 32C7.16344 32 0 24.8366 0 16C0 7.16344 7.16344 0 16 0Z" fill="#F3E8FF"/>
<path d="M16 0C24.8366 0 32 7.16344 32 16C32 24.8366 24.8366 32 16 32C7.16344 32 0 24.8366 0 16C0 7.16344 7.16344 0 16 0Z" stroke="#E5E7EB"/>
<path d="M23 26H9V6H23V26Z" stroke="#E5E7EB"/>
<g clip-path="url(#clip0_18_4961)">
<path d="M16 22.75C17.8565 22.75 19.637 22.0125 20.9497 20.6997C22.2625 19.387 23 17.6065 23 15.75C23 13.8935 22.2625 12.113 20.9497 10.8003C19.637 9.4875 17.8565 8.75 16 8.75C14.1435 8.75 12.363 9.4875 11.0503 10.8003C9.7375 12.113 9 13.8935 9 15.75C9 17.6065 9.7375 19.387 11.0503 20.6997C12.363 22.0125 14.1435 22.75 16 22.75ZM16 13.125C16.6962 13.125 17.3639 13.4016 17.8562 13.8938C18.3484 14.3861 18.625 15.0538 18.625 15.75C18.625 16.4462 18.3484 17.1139 17.8562 17.6062C17.3639 18.0984 16.6962 18.375 16 18.375C15.3038 18.375 14.6361 18.0984 14.1438 17.6062C13.6516 17.1139 13.375 16.4462 13.375 15.75C13.375 15.0538 13.6516 14.3861 14.1438 13.8938C14.6361 13.4016 15.3038 13.125 16 13.125Z" fill="#9333EA"/>
</g>
<defs>
<clipPath id="clip0_18_4961">
<path d="M9 8.75H23V22.75H9V8.75Z" fill="white"/>
</clipPath>
</defs>
</svg>
