<svg width="24" height="24" viewBox="0 0 24 24" fill="none" xmlns="http://www.w3.org/2000/svg">
<path d="M5 19.25V15.8854L15.45 5.45521C15.6083 5.31007 15.7833 5.19792 15.9749 5.11875C16.1665 5.03958 16.3675 5 16.5781 5C16.7887 5 16.9932 5.03958 17.1917 5.11875C17.3901 5.19792 17.5616 5.31667 17.7062 5.475L18.7948 6.58333C18.9531 6.72847 19.0687 6.9 19.1415 7.09792C19.2144 7.29583 19.2505 7.49375 19.25 7.69167C19.25 7.90278 19.2138 8.10413 19.1415 8.29571C19.0692 8.48729 18.9537 8.66199 18.7948 8.81979L8.36458 19.25H5ZM16.5583 8.8L17.6667 7.69167L16.5583 6.58333L15.45 7.69167L16.5583 8.8Z" fill="black"/>
</svg>
