<svg width="24" height="24" viewBox="0 0 24 24" fill="none" xmlns="http://www.w3.org/2000/svg">
<g clip-path="url(#clip0_54_139)">
<path d="M10.823 11.823C10.8463 11.8462 10.8648 11.8738 10.8774 11.9041C10.89 11.9345 10.8964 11.9671 10.8964 12C10.8964 12.0328 10.89 12.0654 10.8774 12.0958C10.8648 12.1262 10.8463 12.1537 10.823 12.177L8.427 14.573C8.39204 14.608 8.34745 14.6319 8.2989 14.6416C8.25034 14.6513 8.20001 14.6463 8.15427 14.6274C8.10853 14.6084 8.06945 14.5763 8.04199 14.5351C8.01453 14.4939 7.99991 14.4455 8 14.396V9.60396C7.99991 9.55445 8.01453 9.50603 8.04199 9.46484C8.06945 9.42364 8.10853 9.39153 8.15427 9.37257C8.20001 9.35361 8.25034 9.34866 8.2989 9.35834C8.34745 9.36803 8.39204 9.39191 8.427 9.42696L10.823 11.823Z" fill="black"/>
<path d="M5.75 4H18.25C19.216 4 20 4.784 20 5.75V18.25C20 18.7141 19.8156 19.1592 19.4874 19.4874C19.1592 19.8156 18.7141 20 18.25 20H5.75C5.28587 20 4.84075 19.8156 4.51256 19.4874C4.18437 19.1592 4 18.7141 4 18.25V5.75C4 4.784 4.784 4 5.75 4ZM5.5 5.75V18.25C5.5 18.388 5.612 18.5 5.75 18.5H13.5V5.5H5.75C5.6837 5.5 5.62011 5.52634 5.57322 5.57322C5.52634 5.62011 5.5 5.6837 5.5 5.75ZM15 18.5H18.25C18.3163 18.5 18.3799 18.4737 18.4268 18.4268C18.4737 18.3799 18.5 18.3163 18.5 18.25V5.75C18.5 5.6837 18.4737 5.62011 18.4268 5.57322C18.3799 5.52634 18.3163 5.5 18.25 5.5H15V18.5Z" fill="black"/>
</g>
<defs>
<clipPath id="clip0_54_139">
<rect width="16" height="16" fill="white" transform="translate(4 4)"/>
</clipPath>
</defs>
</svg>
