<svg width="20" height="20" viewBox="0 0 20 20" fill="none" xmlns="http://www.w3.org/2000/svg">
<g clip-path="url(#clip0_57_366)">
<path d="M17.7445 9.98633C17.7445 10.4785 17.3344 10.8641 16.8695 10.8641H15.9945L16.0137 15.2445C16.0137 15.3184 16.0082 15.3922 16 15.466V15.9062C16 16.5105 15.5105 17 14.9062 17H14.4688C14.4387 17 14.4086 17 14.3785 16.9973C14.3402 17 14.302 17 14.2637 17H13.375H12.7188C12.1145 17 11.625 16.5105 11.625 15.9062V15.25V13.5C11.625 13.016 11.234 12.625 10.75 12.625H9C8.51602 12.625 8.125 13.016 8.125 13.5V15.25V15.9062C8.125 16.5105 7.63555 17 7.03125 17H6.375H5.50273C5.46172 17 5.4207 16.9973 5.37969 16.9945C5.34687 16.9973 5.31406 17 5.28125 17H4.84375C4.23945 17 3.75 16.5105 3.75 15.9062V12.8438C3.75 12.8191 3.75 12.7918 3.75273 12.7672V10.8641H2.875C2.38281 10.8641 2 10.4812 2 9.98633C2 9.74023 2.08203 9.52148 2.27344 9.33008L9.28437 3.21875C9.47578 3.02734 9.69453 3 9.88594 3C10.0773 3 10.2961 3.05469 10.4602 3.19141L17.4437 9.33008C17.6625 9.52148 17.7719 9.74023 17.7445 9.98633Z" fill="#4B5563"/>
</g>
<defs>
<clipPath id="clip0_57_366">
<path d="M2 3H17.75V17H2V3Z" fill="white"/>
</clipPath>
</defs>
</svg>
