<svg width="16" height="28" viewBox="0 0 16 28" fill="none" xmlns="http://www.w3.org/2000/svg">
<path d="M15.75 28H0V0H15.75V28Z" stroke="#E5E7EB"/>
<g clip-path="url(#clip0_32_7974)">
<path d="M9 7.0625C9 6.44023 8.49727 5.9375 7.875 5.9375C7.25273 5.9375 6.75 6.44023 6.75 7.0625V12.125H1.6875C1.06523 12.125 0.5625 12.6277 0.5625 13.25C0.5625 13.8723 1.06523 14.375 1.6875 14.375H6.75V19.4375C6.75 20.0598 7.25273 20.5625 7.875 20.5625C8.49727 20.5625 9 20.0598 9 19.4375V14.375H14.0625C14.6848 14.375 15.1875 13.8723 15.1875 13.25C15.1875 12.6277 14.6848 12.125 14.0625 12.125H9V7.0625Z" fill="white"/>
</g>
<defs>
<clipPath id="clip0_32_7974">
<path d="M0 4.25H15.75V22.25H0V4.25Z" fill="white"/>
</clipPath>
</defs>
</svg>
