<svg width="11" height="16" viewBox="0 0 11 16" fill="none" xmlns="http://www.w3.org/2000/svg">
<path d="M10.5 16H0V0H10.5V16Z" stroke="#E5E7EB"/>
<g clip-path="url(#clip0_45_457)">
<path d="M6 3.375C6 2.96016 5.66484 2.625 5.25 2.625C4.83516 2.625 4.5 2.96016 4.5 3.375V6.75H1.125C0.710156 6.75 0.375 7.08516 0.375 7.5C0.375 7.91484 0.710156 8.25 1.125 8.25H4.5V11.625C4.5 12.0398 4.83516 12.375 5.25 12.375C5.66484 12.375 6 12.0398 6 11.625V8.25H9.375C9.78984 8.25 10.125 7.91484 10.125 7.5C10.125 7.08516 9.78984 6.75 9.375 6.75H6V3.375Z" fill="white"/>
</g>
<defs>
<clipPath id="clip0_45_457">
<path d="M0 1.5H10.5V13.5H0V1.5Z" fill="white"/>
</clipPath>
</defs>
</svg>
