<svg width="10" height="24" viewBox="0 0 10 24" fill="none" xmlns="http://www.w3.org/2000/svg">
<path d="M10 24H0V0H10V24Z" stroke="#E5E7EB"/>
<path d="M10 20H0V4H10V20Z" stroke="#E5E7EB"/>
<path d="M1.25 15H2.75C3.44063 15 4 15.5594 4 16.25V17.75C4 18.4406 3.44063 19 2.75 19H1.25C0.559375 19 0 18.4406 0 17.75V16.25C0 15.5594 0.559375 15 1.25 15ZM7.25 15H8.75C9.44063 15 10 15.5594 10 16.25V17.75C10 18.4406 9.44063 19 8.75 19H7.25C6.55937 19 6 18.4406 6 17.75V16.25C6 15.5594 6.55937 15 7.25 15ZM1.25 14C0.559375 14 0 13.4406 0 12.75V11.25C0 10.5594 0.559375 10 1.25 10H2.75C3.44063 10 4 10.5594 4 11.25V12.75C4 13.4406 3.44063 14 2.75 14H1.25ZM7.25 10H8.75C9.44063 10 10 10.5594 10 11.25V12.75C10 13.4406 9.44063 14 8.75 14H7.25C6.55937 14 6 13.4406 6 12.75V11.25C6 10.5594 6.55937 10 7.25 10ZM1.25 9C0.559375 9 0 8.44063 0 7.75V6.25C0 5.55937 0.559375 5 1.25 5H2.75C3.44063 5 4 5.55937 4 6.25V7.75C4 8.44063 3.44063 9 2.75 9H1.25ZM7.25 5H8.75C9.44063 5 10 5.55937 10 6.25V7.75C10 8.44063 9.44063 9 8.75 9H7.25C6.55937 9 6 8.44063 6 7.75V6.25C6 5.55937 6.55937 5 7.25 5Z" fill="#D1D5DB"/>
</svg>
