<svg width="13" height="17" viewBox="0 0 13 17" fill="none" xmlns="http://www.w3.org/2000/svg">
<path d="M12.25 17H0V0H12.25V17Z" stroke="#E5E7EB"/>
<g clip-path="url(#clip0_18_2730)">
<path d="M11.993 9.36807C12.3348 9.02627 12.3348 8.47119 11.993 8.12939L7.61797 3.75439C7.27617 3.4126 6.72109 3.4126 6.3793 3.75439C6.0375 4.09619 6.0375 4.65127 6.3793 4.99307L9.26406 7.8751H0.875C0.391016 7.8751 0 8.26611 0 8.7501C0 9.23408 0.391016 9.6251 0.875 9.6251H9.26133L6.38203 12.5071C6.04023 12.8489 6.04023 13.404 6.38203 13.7458C6.72383 14.0876 7.27891 14.0876 7.6207 13.7458L11.9957 9.3708L11.993 9.36807Z" fill="#6366F1"/>
</g>
<defs>
<clipPath id="clip0_18_2730">
<path d="M0 1.75H12.25V15.75H0V1.75Z" fill="white"/>
</clipPath>
</defs>
</svg>
