<svg width="13" height="17" viewBox="0 0 13 17" fill="none" xmlns="http://www.w3.org/2000/svg">
<path d="M12.25 17H0V0H12.25V17Z" stroke="#E5E7EB"/>
<g clip-path="url(#clip0_45_1093)">
<path d="M7 3.9375C7 3.45352 6.60898 3.0625 6.125 3.0625C5.64102 3.0625 5.25 3.45352 5.25 3.9375V7.875H1.3125C0.828516 7.875 0.4375 8.26602 0.4375 8.75C0.4375 9.23398 0.828516 9.625 1.3125 9.625H5.25V13.5625C5.25 14.0465 5.64102 14.4375 6.125 14.4375C6.60898 14.4375 7 14.0465 7 13.5625V9.625H10.9375C11.4215 9.625 11.8125 9.23398 11.8125 8.75C11.8125 8.26602 11.4215 7.875 10.9375 7.875H7V3.9375Z" fill="#6B7280"/>
</g>
<defs>
<clipPath id="clip0_45_1093">
<path d="M0 1.75H12.25V15.75H0V1.75Z" fill="white"/>
</clipPath>
</defs>
</svg>
