<svg width="24" height="29" viewBox="0 0 24 29" fill="none" xmlns="http://www.w3.org/2000/svg">
<path d="M24 29H0V0H24V29Z" stroke="#E5E7EB"/>
<g clip-path="url(#clip0_45_1213)">
<path d="M12 26C15.1826 26 18.2348 24.7357 20.4853 22.4853C22.7357 20.2348 24 17.1826 24 14C24 10.8174 22.7357 7.76516 20.4853 5.51472C18.2348 3.26428 15.1826 2 12 2C8.8174 2 5.76516 3.26428 3.51472 5.51472C1.26428 7.76516 0 10.8174 0 14C0 17.1826 1.26428 20.2348 3.51472 22.4853C5.76516 24.7357 8.8174 26 12 26ZM17.2969 11.7969L11.2969 17.7969C10.8563 18.2375 10.1438 18.2375 9.70781 17.7969L6.70781 14.7969C6.26719 14.3563 6.26719 13.6438 6.70781 13.2078C7.14844 12.7719 7.86094 12.7672 8.29688 13.2078L10.5 15.4109L15.7031 10.2031C16.1437 9.7625 16.8562 9.7625 17.2922 10.2031C17.7281 10.6437 17.7328 11.3562 17.2922 11.7922L17.2969 11.7969Z" fill="#D1D5DB"/>
</g>
<defs>
<clipPath id="clip0_45_1213">
<path d="M0 2H24V26H0V2Z" fill="white"/>
</clipPath>
</defs>
</svg>
