<svg width="12" height="16" viewBox="0 0 12 16" fill="none" xmlns="http://www.w3.org/2000/svg">
<path d="M12 16H0V0H12V16Z" stroke="#E5E7EB"/>
<g clip-path="url(#clip0_18_2829)">
<path d="M6 13.5C7.5913 13.5 9.11742 12.8679 10.2426 11.7426C11.3679 10.6174 12 9.0913 12 7.5C12 5.9087 11.3679 4.38258 10.2426 3.25736C9.11742 2.13214 7.5913 1.5 6 1.5C4.4087 1.5 2.88258 2.13214 1.75736 3.25736C0.632141 4.38258 0 5.9087 0 7.5C0 9.0913 0.632141 10.6174 1.75736 11.7426C2.88258 12.8679 4.4087 13.5 6 13.5ZM8.64844 6.39844L5.64844 9.39844C5.42813 9.61875 5.07188 9.61875 4.85391 9.39844L3.35391 7.89844C3.13359 7.67813 3.13359 7.32188 3.35391 7.10391C3.57422 6.88594 3.93047 6.88359 4.14844 7.10391L5.25 8.20547L7.85156 5.60156C8.07187 5.38125 8.42812 5.38125 8.64609 5.60156C8.86406 5.82187 8.86641 6.17812 8.64609 6.39609L8.64844 6.39844Z" fill="#166534"/>
</g>
<defs>
<clipPath id="clip0_18_2829">
<path d="M0 1.5H12V13.5H0V1.5Z" fill="white"/>
</clipPath>
</defs>
</svg>
