<svg width="20" height="20" viewBox="0 0 20 20" fill="none" xmlns="http://www.w3.org/2000/svg">
<g clip-path="url(#clip0_57_380)">
<path d="M4.9375 3C5.51766 3 6.07406 3.23047 6.4843 3.6407C6.89453 4.05094 7.125 4.60734 7.125 5.1875C7.125 5.76766 6.89453 6.32406 6.4843 6.7343C6.07406 7.14453 5.51766 7.375 4.9375 7.375C4.35734 7.375 3.80094 7.14453 3.3907 6.7343C2.98047 6.32406 2.75 5.76766 2.75 5.1875C2.75 4.60734 2.98047 4.05094 3.3907 3.6407C3.80094 3.23047 4.35734 3 4.9375 3ZM15 3C15.5802 3 16.1366 3.23047 16.5468 3.6407C16.957 4.05094 17.1875 4.60734 17.1875 5.1875C17.1875 5.76766 16.957 6.32406 16.5468 6.7343C16.1366 7.14453 15.5802 7.375 15 7.375C14.4198 7.375 13.8634 7.14453 13.4532 6.7343C13.043 6.32406 12.8125 5.76766 12.8125 5.1875C12.8125 4.60734 13.043 4.05094 13.4532 3.6407C13.8634 3.23047 14.4198 3 15 3ZM1 11.1676C1 9.55703 2.30703 8.25 3.91758 8.25H5.08516C5.51992 8.25 5.93281 8.3457 6.30469 8.51523C6.26914 8.71211 6.25273 8.91719 6.25273 9.125C6.25273 10.1695 6.71211 11.1074 7.43672 11.75C7.43125 11.75 7.42578 11.75 7.41758 11.75H1.58242C1.2625 11.75 1 11.4875 1 11.1676ZM12.0824 11.75C12.077 11.75 12.0715 11.75 12.0633 11.75C12.7906 11.1074 13.2473 10.1695 13.2473 9.125C13.2473 8.91719 13.2281 8.71484 13.1953 8.51523C13.5672 8.34297 13.9801 8.25 14.4148 8.25H15.5824C17.193 8.25 18.5 9.55703 18.5 11.1676C18.5 11.4902 18.2375 11.75 17.9176 11.75H12.0824ZM7.125 9.125C7.125 8.42881 7.40156 7.76113 7.89384 7.26884C8.38613 6.77656 9.05381 6.5 9.75 6.5C10.4462 6.5 11.1139 6.77656 11.6062 7.26884C12.0984 7.76113 12.375 8.42881 12.375 9.125C12.375 9.82119 12.0984 10.4889 11.6062 10.9812C11.1139 11.4734 10.4462 11.75 9.75 11.75C9.05381 11.75 8.38613 11.4734 7.89384 10.9812C7.40156 10.4889 7.125 9.82119 7.125 9.125ZM4.5 16.2699C4.5 14.2574 6.13242 12.625 8.14492 12.625H11.3551C13.3676 12.625 15 14.2574 15 16.2699C15 16.6719 14.6746 17 14.2699 17H5.23008C4.82812 17 4.5 16.6746 4.5 16.2699Z" fill="#4B5563"/>
</g>
<defs>
<clipPath id="clip0_57_380">
<path d="M1 3H18.5V17H1V3Z" fill="white"/>
</clipPath>
</defs>
</svg>
