<svg width="20" height="20" viewBox="0 0 20 20" fill="none" xmlns="http://www.w3.org/2000/svg">
<g clip-path="url(#clip0_57_387)">
<path d="M4.75 4.75C4.75 4.26602 4.35898 3.875 3.875 3.875C3.39102 3.875 3 4.26602 3 4.75V13.9375C3 15.1461 3.97891 16.125 5.1875 16.125H16.125C16.609 16.125 17 15.734 17 15.25C17 14.766 16.609 14.375 16.125 14.375H5.1875C4.94687 14.375 4.75 14.1781 4.75 13.9375V4.75ZM15.868 7.11797C16.2098 6.77617 16.2098 6.22109 15.868 5.8793C15.5262 5.5375 14.9711 5.5375 14.6293 5.8793L11.75 8.76133L10.1805 7.1918C9.83867 6.85 9.28359 6.85 8.9418 7.1918L5.8793 10.2543C5.5375 10.5961 5.5375 11.1512 5.8793 11.493C6.22109 11.8348 6.77617 11.8348 7.11797 11.493L9.5625 9.05117L11.132 10.6207C11.4738 10.9625 12.0289 10.9625 12.3707 10.6207L15.8707 7.1207L15.868 7.11797Z" fill="#4B5563"/>
</g>
<defs>
<clipPath id="clip0_57_387">
<path d="M3 3H17V17H3V3Z" fill="white"/>
</clipPath>
</defs>
</svg>
