<svg width="20" height="20" viewBox="0 0 20 20" fill="none" xmlns="http://www.w3.org/2000/svg">
<path d="M20 20H0V0H20V20Z" stroke="#E5E7EB"/>
<g clip-path="url(#clip0_18_3694)">
<path d="M13.5597 7.30547C13.6472 7.54336 13.5734 7.80859 13.3847 7.97812L12.2007 9.05547C12.2308 9.28242 12.2472 9.51484 12.2472 9.75C12.2472 9.98516 12.2308 10.2176 12.2007 10.4445L13.3847 11.5219C13.5734 11.6914 13.6472 11.9566 13.5597 12.1945C13.4394 12.5199 13.2945 12.8316 13.1277 13.1324L12.9992 13.3539C12.8187 13.6547 12.6164 13.9391 12.3949 14.207C12.2336 14.4039 11.9656 14.4695 11.725 14.393L10.2019 13.909C9.83551 14.1906 9.43082 14.4258 8.99879 14.6035L8.65699 16.1648C8.6023 16.4137 8.4109 16.6105 8.15933 16.6516C7.78199 16.7145 7.39371 16.7473 6.99722 16.7473C6.60074 16.7473 6.21246 16.7145 5.83511 16.6516C5.58355 16.6105 5.39215 16.4137 5.33746 16.1648L4.99566 14.6035C4.56363 14.4258 4.15894 14.1906 3.79254 13.909L2.27222 14.3957C2.0316 14.4723 1.76363 14.4039 1.6023 14.2098C1.38082 13.9418 1.17847 13.6574 0.998005 13.3566L0.869489 13.1352C0.702693 12.8344 0.557771 12.5227 0.437458 12.1973C0.349958 11.9594 0.423786 11.6941 0.612458 11.5246L1.79644 10.4473C1.76636 10.2176 1.74996 9.98516 1.74996 9.75C1.74996 9.51484 1.76636 9.28242 1.79644 9.05547L0.612458 7.97812C0.423786 7.80859 0.349958 7.54336 0.437458 7.30547C0.557771 6.98008 0.702693 6.66836 0.869489 6.36758L0.998005 6.14609C1.17847 5.84531 1.38082 5.56094 1.6023 5.29297C1.76363 5.09609 2.0316 5.03047 2.27222 5.10703L3.79527 5.59102C4.16168 5.30938 4.56636 5.07422 4.9984 4.89648L5.34019 3.33516C5.39488 3.08633 5.58629 2.88945 5.83785 2.84844C6.21519 2.78281 6.60347 2.75 6.99996 2.75C7.39644 2.75 7.78472 2.78281 8.16207 2.8457C8.41363 2.88672 8.60504 3.08359 8.65972 3.33242L9.00152 4.89375C9.43355 5.07148 9.83824 5.30664 10.2046 5.58828L11.7277 5.1043C11.9683 5.02773 12.2363 5.09609 12.3976 5.29023C12.6191 5.5582 12.8214 5.84258 13.0019 6.14336L13.1304 6.36484C13.2972 6.66562 13.4421 6.97734 13.5625 7.30273L13.5597 7.30547ZM6.99996 11.9375C7.58012 11.9375 8.13652 11.707 8.54675 11.2968C8.95699 10.8866 9.18746 10.3302 9.18746 9.75C9.18746 9.16984 8.95699 8.61344 8.54675 8.2032C8.13652 7.79297 7.58012 7.5625 6.99996 7.5625C6.4198 7.5625 5.8634 7.79297 5.45316 8.2032C5.04293 8.61344 4.81246 9.16984 4.81246 9.75C4.81246 10.3302 5.04293 10.8866 5.45316 11.2968C5.8634 11.707 6.4198 11.9375 6.99996 11.9375Z" fill="#4B5563"/>
</g>
<defs>
<clipPath id="clip0_18_3694">
<path d="M0 2.75H14V16.75H0V2.75Z" fill="white"/>
</clipPath>
</defs>
</svg>
