<svg width="20" height="20" viewBox="0 0 20 20" fill="none" xmlns="http://www.w3.org/2000/svg">
<g clip-path="url(#clip0_57_394)">
<path d="M16.5597 7.55547C16.6472 7.79336 16.5734 8.05859 16.3847 8.22813L15.2007 9.30547C15.2308 9.53242 15.2472 9.76484 15.2472 10C15.2472 10.2352 15.2308 10.4676 15.2007 10.6945L16.3847 11.7719C16.5734 11.9414 16.6472 12.2066 16.5597 12.4445C16.4394 12.7699 16.2945 13.0816 16.1277 13.3824L15.9992 13.6039C15.8187 13.9047 15.6164 14.1891 15.3949 14.457C15.2336 14.6539 14.9656 14.7195 14.725 14.643L13.2019 14.159C12.8355 14.4406 12.4308 14.6758 11.9988 14.8535L11.657 16.4148C11.6023 16.6637 11.4109 16.8605 11.1593 16.9016C10.782 16.9645 10.3937 16.9973 9.99722 16.9973C9.60074 16.9973 9.21246 16.9645 8.83511 16.9016C8.58355 16.8605 8.39215 16.6637 8.33746 16.4148L7.99566 14.8535C7.56363 14.6758 7.15894 14.4406 6.79254 14.159L5.27222 14.6457C5.0316 14.7223 4.76363 14.6539 4.6023 14.4598C4.38082 14.1918 4.17847 13.9074 3.99801 13.6066L3.86949 13.3852C3.70269 13.0844 3.55777 12.7727 3.43746 12.4473C3.34996 12.2094 3.42379 11.9441 3.61246 11.7746L4.79644 10.6973C4.76636 10.4676 4.74996 10.2352 4.74996 10C4.74996 9.76484 4.76636 9.53242 4.79644 9.30547L3.61246 8.22813C3.42379 8.05859 3.34996 7.79336 3.43746 7.55547C3.55777 7.23008 3.70269 6.91836 3.86949 6.61758L3.99801 6.39609C4.17847 6.09531 4.38082 5.81094 4.6023 5.54297C4.76363 5.34609 5.0316 5.28047 5.27222 5.35703L6.79527 5.84102C7.16168 5.55938 7.56636 5.32422 7.9984 5.14648L8.34019 3.58516C8.39488 3.33633 8.58629 3.13945 8.83785 3.09844C9.21519 3.03281 9.60347 3 9.99996 3C10.3964 3 10.7847 3.03281 11.1621 3.0957C11.4136 3.13672 11.605 3.33359 11.6597 3.58242L12.0015 5.14375C12.4336 5.32148 12.8382 5.55664 13.2046 5.83828L14.7277 5.3543C14.9683 5.27773 15.2363 5.34609 15.3976 5.54023C15.6191 5.8082 15.8214 6.09258 16.0019 6.39336L16.1304 6.61484C16.2972 6.91562 16.4421 7.22734 16.5625 7.55273L16.5597 7.55547ZM9.99996 12.1875C10.5801 12.1875 11.1365 11.957 11.5468 11.5468C11.957 11.1366 12.1875 10.5802 12.1875 10C12.1875 9.41984 11.957 8.86344 11.5468 8.4532C11.1365 8.04297 10.5801 7.8125 9.99996 7.8125C9.4198 7.8125 8.8634 8.04297 8.45316 8.4532C8.04293 8.86344 7.81246 9.41984 7.81246 10C7.81246 10.5802 8.04293 11.1366 8.45316 11.5468C8.8634 11.957 9.4198 12.1875 9.99996 12.1875Z" fill="#4B5563"/>
</g>
<defs>
<clipPath id="clip0_57_394">
<path d="M3 3H17V17H3V3Z" fill="white"/>
</clipPath>
</defs>
</svg>
