<svg width="4" height="20" viewBox="0 0 4 20" fill="none" xmlns="http://www.w3.org/2000/svg">
<path d="M3.5 20H0V0H3.5V20Z" stroke="#E5E7EB"/>
<g clip-path="url(#clip0_45_383)">
<path d="M1.75 12.5938C1.34389 12.5938 0.954408 12.7551 0.667243 13.0422C0.380078 13.3294 0.21875 13.7189 0.21875 14.125C0.21875 14.5311 0.380078 14.9206 0.667243 15.2078C0.954408 15.4949 1.34389 15.6562 1.75 15.6562C2.15611 15.6562 2.54559 15.4949 2.83276 15.2078C3.11992 14.9206 3.28125 14.5311 3.28125 14.125C3.28125 13.7189 3.11992 13.3294 2.83276 13.0422C2.54559 12.7551 2.15611 12.5938 1.75 12.5938ZM1.75 8.21875C1.34389 8.21875 0.954408 8.38008 0.667243 8.66724C0.380078 8.95441 0.21875 9.34389 0.21875 9.75C0.21875 10.1561 0.380078 10.5456 0.667243 10.8328C0.954408 11.1199 1.34389 11.2812 1.75 11.2812C2.15611 11.2812 2.54559 11.1199 2.83276 10.8328C3.11992 10.5456 3.28125 10.1561 3.28125 9.75C3.28125 9.34389 3.11992 8.95441 2.83276 8.66724C2.54559 8.38008 2.15611 8.21875 1.75 8.21875ZM3.28125 5.375C3.28125 4.96889 3.11992 4.57941 2.83276 4.29224C2.54559 4.00508 2.15611 3.84375 1.75 3.84375C1.34389 3.84375 0.954408 4.00508 0.667243 4.29224C0.380078 4.57941 0.21875 4.96889 0.21875 5.375C0.21875 5.78111 0.380078 6.17059 0.667243 6.45776C0.954408 6.74492 1.34389 6.90625 1.75 6.90625C2.15611 6.90625 2.54559 6.74492 2.83276 6.45776C3.11992 6.17059 3.28125 5.78111 3.28125 5.375Z" fill="#9CA3AF"/>
</g>
<defs>
<clipPath id="clip0_45_383">
<path d="M0 2.75H3.5V16.75H0V2.75Z" fill="white"/>
</clipPath>
</defs>
</svg>
