<svg width="14" height="17" viewBox="0 0 14 17" fill="none" xmlns="http://www.w3.org/2000/svg">
<path d="M14 17H0V0H14V17Z" stroke="#E5E7EB"/>
<path d="M14 15.75H0V1.75H14V15.75Z" stroke="#E5E7EB"/>
<path d="M1.75 8.75V6.125H6.125V8.75H1.75ZM1.75 10.5H6.125V13.125H1.75V10.5ZM7.875 13.125V10.5H12.25V13.125H7.875ZM12.25 8.75H7.875V6.125H12.25V8.75ZM1.75 2.625C0.784766 2.625 0 3.40977 0 4.375V13.125C0 14.0902 0.784766 14.875 1.75 14.875H12.25C13.2152 14.875 14 14.0902 14 13.125V4.375C14 3.40977 13.2152 2.625 12.25 2.625H1.75Z" fill="#374151"/>
</svg>
