<svg width="12" height="16" viewBox="0 0 12 16" fill="none" xmlns="http://www.w3.org/2000/svg">
<path d="M12 16H0V0H12V16Z" stroke="#E5E7EB"/>
<g clip-path="url(#clip0_45_435)">
<path d="M9.75 6.375C9.75 7.45078 9.40078 8.44453 8.8125 9.25078L11.7797 12.2203C12.0727 12.5133 12.0727 12.9891 11.7797 13.282C11.4867 13.575 11.0109 13.575 10.718 13.282L7.75078 10.3125C6.94453 10.9031 5.95078 11.25 4.875 11.25C2.18203 11.25 0 9.06797 0 6.375C0 3.68203 2.18203 1.5 4.875 1.5C7.56797 1.5 9.75 3.68203 9.75 6.375ZM4.875 9.75C5.31821 9.75 5.75708 9.6627 6.16656 9.49309C6.57603 9.32348 6.94809 9.07488 7.26149 8.76149C7.57488 8.44809 7.82348 8.07603 7.99309 7.66656C8.1627 7.25708 8.25 6.81821 8.25 6.375C8.25 5.93179 8.1627 5.49292 7.99309 5.08344C7.82348 4.67397 7.57488 4.30191 7.26149 3.98851C6.94809 3.67512 6.57603 3.42652 6.16656 3.25691C5.75708 3.0873 5.31821 3 4.875 3C4.43179 3 3.99292 3.0873 3.58344 3.25691C3.17397 3.42652 2.80191 3.67512 2.48851 3.98851C2.17512 4.30191 1.92652 4.67397 1.75691 5.08344C1.5873 5.49292 1.5 5.93179 1.5 6.375C1.5 6.81821 1.5873 7.25708 1.75691 7.66656C1.92652 8.07603 2.17512 8.44809 2.48851 8.76149C2.80191 9.07488 3.17397 9.32348 3.58344 9.49309C3.99292 9.6627 4.43179 9.75 4.875 9.75Z" fill="#9CA3AF"/>
</g>
<defs>
<clipPath id="clip0_45_435">
<path d="M0 1.5H12V13.5H0V1.5Z" fill="white"/>
</clipPath>
</defs>
</svg>
