<svg width="32" height="32" viewBox="0 0 32 32" fill="none" xmlns="http://www.w3.org/2000/svg">
<path d="M24 0C28.4183 0 32 3.58172 32 8V24C32 28.4183 28.4183 32 24 32H8C3.58172 32 0 28.4183 0 24V8C0 3.58172 3.58172 0 8 0H24Z" fill="#2563EB"/>

<g clip-path="url(#clip0_71_791)">
<path d="M16 8.75C17.8565 8.75 19.637 9.4875 20.9497 10.8003C22.2625 12.113 23 13.8935 23 15.75C23 17.6065 22.2625 19.387 20.9497 20.6997C19.637 22.0125 17.8565 22.75 16 22.75C14.1435 22.75 12.363 22.0125 11.0503 20.6997C9.7375 19.387 9 17.6065 9 15.75C9 13.8935 9.7375 12.113 11.0503 10.8003C12.363 9.4875 14.1435 8.75 16 8.75ZM15.3438 12.0312V15.75C15.3438 15.9688 15.4531 16.1738 15.6363 16.2969L18.2613 18.0469C18.5621 18.2492 18.9695 18.1672 19.1719 17.8637C19.3742 17.5602 19.2922 17.1555 18.9887 16.9531L16.6562 15.4V12.0312C16.6562 11.6676 16.3637 11.375 16 11.375C15.6363 11.375 15.3438 11.6676 15.3438 12.0312Z" fill="white"/>
</g>
<defs>
<clipPath id="clip0_71_791">
<path d="M9 8.75H23V22.75H9V8.75Z" fill="white"/>
</clipPath>
</defs>
</svg>
