<svg width="18" height="24" viewBox="0 0 18 24" fill="none" xmlns="http://www.w3.org/2000/svg">
<path d="M18 24H0V0H18V24Z" stroke="#E5E7EB"/>
<path d="M18 22H0V2H18V22Z" stroke="#E5E7EB"/>
<g clip-path="url(#clip0_40_614)">
<path d="M9.0002 5C6.4752 5 4.45332 6.15 2.98145 7.51875C1.51895 8.875 0.54082 10.5 0.0783203 11.6156C-0.0248047 11.8625 -0.0248047 12.1375 0.0783203 12.3844C0.54082 13.5 1.51895 15.125 2.98145 16.4812C4.45332 17.85 6.4752 19 9.0002 19C11.5252 19 13.5471 17.85 15.0189 16.4812C16.4814 15.1219 17.4596 13.5 17.9252 12.3844C18.0283 12.1375 18.0283 11.8625 17.9252 11.6156C17.4596 10.5 16.4814 8.875 15.0189 7.51875C13.5471 6.15 11.5252 5 9.0002 5ZM4.5002 12C4.5002 10.8065 4.9743 9.66193 5.81821 8.81802C6.66213 7.97411 7.80672 7.5 9.0002 7.5C10.1937 7.5 11.3383 7.97411 12.1822 8.81802C13.0261 9.66193 13.5002 10.8065 13.5002 12C13.5002 13.1935 13.0261 14.3381 12.1822 15.182C11.3383 16.0259 10.1937 16.5 9.0002 16.5C7.80672 16.5 6.66213 16.0259 5.81821 15.182C4.9743 14.3381 4.5002 13.1935 4.5002 12ZM9.0002 10C9.0002 11.1031 8.10332 12 7.0002 12C6.77832 12 6.56582 11.9625 6.36582 11.8969C6.19395 11.8406 5.99395 11.9469 6.0002 12.1281C6.00957 12.3438 6.04082 12.5594 6.1002 12.775C6.52832 14.375 8.1752 15.325 9.7752 14.8969C11.3752 14.4688 12.3252 12.8219 11.8971 11.2219C11.5502 9.925 10.4033 9.05313 9.12832 9C8.94707 8.99375 8.84082 9.19062 8.89707 9.36562C8.9627 9.56562 9.0002 9.77813 9.0002 10Z" fill="#94A3B8"/>
</g>
<defs>
<clipPath id="clip0_40_614">
<path d="M0 4H18V20H0V4Z" fill="white"/>
</clipPath>
</defs>
</svg>
