<svg width="14" height="28" viewBox="0 0 14 28" fill="none" xmlns="http://www.w3.org/2000/svg">
<path d="M13.5 28H0V0H13.5V28Z" stroke="#E5E7EB"/>
<path d="M13.5 24H0V3H13.5V24Z" stroke="#E5E7EB"/>
<path d="M13.5 22.25H0V4.25H13.5V22.25Z" stroke="#E5E7EB"/>
<path d="M12.0445 9.54521C12.4839 9.10576 12.4839 8.39209 12.0445 7.95264C11.605 7.51318 10.8914 7.51318 10.4519 7.95264L6.74995 11.6581L3.04448 7.95615C2.60503 7.5167 1.89136 7.5167 1.4519 7.95615C1.01245 8.39561 1.01245 9.10928 1.4519 9.54873L5.15737 13.2507L1.45542 16.9562C1.01597 17.3956 1.01597 18.1093 1.45542 18.5487C1.89487 18.9882 2.60854 18.9882 3.048 18.5487L6.74995 14.8433L10.4554 18.5452C10.8949 18.9847 11.6085 18.9847 12.048 18.5452C12.4875 18.1058 12.4875 17.3921 12.048 16.9526L8.34253 13.2507L12.0445 9.54521Z" fill="#9CA3AF"/>
</svg>
