<svg width="9" height="20" viewBox="0 0 9 20" fill="none" xmlns="http://www.w3.org/2000/svg">
<path d="M9 20H0V0H9V20Z" stroke="#E5E7EB"/>
<path d="M9 18H0V3H9V18Z" stroke="#E5E7EB"/>
<g clip-path="url(#clip0_28_7303)">
<path d="M8.02974 8.02949C8.32271 7.73652 8.32271 7.26074 8.02974 6.96777C7.73677 6.6748 7.26099 6.6748 6.96802 6.96777L4.50005 9.43809L2.02974 6.97012C1.73677 6.67715 1.26099 6.67715 0.968018 6.97012C0.675049 7.26309 0.675049 7.73887 0.968018 8.03184L3.43833 10.4998L0.970361 12.9701C0.677393 13.2631 0.677393 13.7389 0.970361 14.0318C1.26333 14.3248 1.73911 14.3248 2.03208 14.0318L4.50005 11.5615L6.97036 14.0295C7.26333 14.3225 7.73911 14.3225 8.03208 14.0295C8.32505 13.7365 8.32505 13.2607 8.03208 12.9678L5.56177 10.4998L8.02974 8.02949Z" fill="#2563EB"/>
</g>
<defs>
<clipPath id="clip0_28_7303">
<path d="M0 4.5H9V16.5H0V4.5Z" fill="white"/>
</clipPath>
</defs>
</svg>
