<svg width="40" height="40" viewBox="0 0 40 40" fill="none" xmlns="http://www.w3.org/2000/svg">
<path d="M32 0C36.4183 0 40 3.58172 40 8V32C40 36.4183 36.4183 40 32 40H8C3.58172 40 6.44277e-08 36.4183 0 32V8C0 3.58172 3.58172 6.44256e-08 8 0H32Z" fill="#F3E8FF"/>
<path d="M32 0C36.4183 0 40 3.58172 40 8V32C40 36.4183 36.4183 40 32 40H8C3.58172 40 6.44277e-08 36.4183 0 32V8C0 3.58172 3.58172 6.44256e-08 8 0H32Z" stroke="#E5E7EB"/>
<path d="M26 32H14V8H26V32Z" stroke="#E5E7EB"/>
<g clip-path="url(#clip0_18_2737)">
<path d="M14.5 14C14.5 12.8969 15.3969 12 16.5 12H23.5C24.6031 12 25.5 12.8969 25.5 14V26C25.5 27.1031 24.6031 28 23.5 28H16.5C15.3969 28 14.5 27.1031 14.5 26V14ZM21 26C21 25.7348 20.8946 25.4804 20.7071 25.2929C20.5196 25.1054 20.2652 25 20 25C19.7348 25 19.4804 25.1054 19.2929 25.2929C19.1054 25.4804 19 25.7348 19 26C19 26.2652 19.1054 26.5196 19.2929 26.7071C19.4804 26.8946 19.7348 27 20 27C20.2652 27 20.5196 26.8946 20.7071 26.7071C20.8946 26.5196 21 26.2652 21 26ZM23.5 14H16.5V24H23.5V14Z" fill="#9333EA"/>
</g>
<defs>
<clipPath id="clip0_18_2737">
<path d="M14 12H26V28H14V12Z" fill="white"/>
</clipPath>
</defs>
</svg>
