<svg width="40" height="40" viewBox="0 0 40 40" fill="none" xmlns="http://www.w3.org/2000/svg">
<path d="M32 0C36.4183 0 40 3.58172 40 8V32C40 36.4183 36.4183 40 32 40H8C3.58172 40 6.44277e-08 36.4183 0 32V8C0 3.58172 3.58172 6.44256e-08 8 0H32Z" fill="#DCFCE7"/>
<path d="M32 0C36.4183 0 40 3.58172 40 8V32C40 36.4183 36.4183 40 32 40H8C3.58172 40 6.44277e-08 36.4183 0 32V8C0 3.58172 3.58172 6.44256e-08 8 0H32Z" stroke="#E5E7EB"/>
<path d="M28 32H12V8H28V32Z" stroke="#E5E7EB"/>
<g clip-path="url(#clip0_18_2774)">
<path d="M14 14C14 13.4469 13.5531 13 13 13C12.4469 13 12 13.4469 12 14V24.5C12 25.8813 13.1187 27 14.5 27H27C27.5531 27 28 26.5531 28 26C28 25.4469 27.5531 25 27 25H14.5C14.225 25 14 24.775 14 24.5V14ZM26.7063 16.7063C27.0969 16.3156 27.0969 15.6813 26.7063 15.2906C26.3156 14.9 25.6812 14.9 25.2906 15.2906L22 18.5844L20.2063 16.7906C19.8156 16.4 19.1813 16.4 18.7906 16.7906L15.2906 20.2906C14.9 20.6812 14.9 21.3156 15.2906 21.7063C15.6813 22.0969 16.3156 22.0969 16.7063 21.7063L19.5 18.9156L21.2937 20.7094C21.6844 21.1 22.3188 21.1 22.7094 20.7094L26.7094 16.7094L26.7063 16.7063Z" fill="#16A34A"/>
</g>
<defs>
<clipPath id="clip0_18_2774">
<path d="M12 12H28V28H12V12Z" fill="white"/>
</clipPath>
</defs>
</svg>
