<svg width="40" height="40" viewBox="0 0 40 40" fill="none" xmlns="http://www.w3.org/2000/svg">
<path d="M32 0C36.4183 0 40 3.58172 40 8V32C40 36.4183 36.4183 40 32 40H8C3.58172 40 6.44277e-08 36.4183 0 32V8C0 3.58172 3.58172 6.44256e-08 8 0H32Z" fill="#FEE2E2"/>
<path d="M32 0C36.4183 0 40 3.58172 40 8V32C40 36.4183 36.4183 40 32 40H8C3.58172 40 6.44277e-08 36.4183 0 32V8C0 3.58172 3.58172 6.44256e-08 8 0H32Z" stroke="#E5E7EB"/>
<path d="M28 32H12V8H28V32Z" stroke="#E5E7EB"/>
<g clip-path="url(#clip0_18_2848)">
<path d="M20 12C20.1438 12 20.2875 12.0313 20.4188 12.0906L26.3031 14.5875C26.9906 14.8781 27.5031 15.5562 27.5 16.375C27.4844 19.475 26.2094 25.1469 20.825 27.725C20.3031 27.975 19.6969 27.975 19.175 27.725C13.7906 25.1469 12.5156 19.475 12.5 16.375C12.4969 15.5562 13.0094 14.8781 13.6969 14.5875L19.5844 12.0906C19.7125 12.0313 19.8563 12 20 12ZM20 14.0875V25.9C24.3125 23.8125 25.4719 19.1906 25.5 16.4187L20 14.0875Z" fill="#DC2626"/>
</g>
<defs>
<clipPath id="clip0_18_2848">
<path d="M12 12H28V28H12V12Z" fill="white"/>
</clipPath>
</defs>
</svg>
