<svg width="40" height="40" viewBox="0 0 40 40" fill="none" xmlns="http://www.w3.org/2000/svg">
<path d="M32 0C36.4183 0 40 3.58172 40 8V32C40 36.4183 36.4183 40 32 40H8C3.58172 40 6.44277e-08 36.4183 0 32V8C0 3.58172 3.58172 6.44256e-08 8 0H32Z" fill="#E0E7FF"/>
<path d="M32 0C36.4183 0 40 3.58172 40 8V32C40 36.4183 36.4183 40 32 40H8C3.58172 40 6.44277e-08 36.4183 0 32V8C0 3.58172 3.58172 6.44256e-08 8 0H32Z" stroke="#E5E7EB"/>
<path d="M27 32H13V8H27V32Z" stroke="#E5E7EB"/>
<g clip-path="url(#clip0_18_2885)">
<path d="M27 14.5V16C27 17.3813 23.8656 18.5 20 18.5C16.1344 18.5 13 17.3813 13 16V14.5C13 13.1187 16.1344 12 20 12C23.8656 12 27 13.1187 27 14.5ZM25.2875 18.7094C25.9375 18.4781 26.5344 18.1813 27 17.8156V21C27 22.3813 23.8656 23.5 20 23.5C16.1344 23.5 13 22.3813 13 21V17.8156C13.4656 18.1844 14.0625 18.4781 14.7125 18.7094C16.1156 19.2094 17.9844 19.5 20 19.5C22.0156 19.5 23.8844 19.2094 25.2875 18.7094ZM13 22.8156C13.4656 23.1844 14.0625 23.4781 14.7125 23.7094C16.1156 24.2094 17.9844 24.5 20 24.5C22.0156 24.5 23.8844 24.2094 25.2875 23.7094C25.9375 23.4781 26.5344 23.1813 27 22.8156V25.5C27 26.8813 23.8656 28 20 28C16.1344 28 13 26.8813 13 25.5V22.8156Z" fill="#4F46E5"/>
</g>
<defs>
<clipPath id="clip0_18_2885">
<path d="M13 12H27V28H13V12Z" fill="white"/>
</clipPath>
</defs>
</svg>
