<svg width="17" height="17" viewBox="0 0 17 17" fill="none" xmlns="http://www.w3.org/2000/svg">
<path fill-rule="evenodd" clip-rule="evenodd" d="M4.44559 6.12871C4.56736 6.01156 4.73066 5.94754 4.89961 5.95073C5.06855 5.95392 5.22932 6.02405 5.34659 6.14571L8.50009 9.49301L11.6536 6.14571C11.7109 6.08252 11.7803 6.03148 11.8577 5.99561C11.9352 5.95974 12.019 5.93977 12.1042 5.93689C12.1895 5.93401 12.2745 5.94827 12.3541 5.97883C12.4338 6.0094 12.5065 6.05564 12.568 6.11482C12.6294 6.174 12.6784 6.24491 12.7119 6.32336C12.7455 6.4018 12.7629 6.48618 12.7633 6.5715C12.7636 6.65682 12.7468 6.74133 12.7139 6.82004C12.681 6.89875 12.6326 6.97005 12.5716 7.02971L8.95909 10.8547C8.89962 10.9164 8.82832 10.9655 8.74946 10.999C8.67059 11.0325 8.58578 11.0498 8.50009 11.0498C8.4144 11.0498 8.32958 11.0325 8.25072 10.999C8.17185 10.9655 8.10056 10.9164 8.04109 10.8547L4.42859 7.02971C4.31143 6.90794 4.24741 6.74464 4.2506 6.5757C4.25379 6.40675 4.32392 6.24598 4.44559 6.12871Z" fill="black"/>
</svg>
