<svg width="16" height="20" viewBox="0 0 16 20" fill="none" xmlns="http://www.w3.org/2000/svg">
<path d="M16 20H0V0H16V20Z" stroke="#E5E7EB"/>
<g clip-path="url(#clip0_40_621)">
<path d="M7 16.75C8.85652 16.75 10.637 16.0125 11.9497 14.6997C13.2625 13.387 14 11.6065 14 9.75C14 7.89348 13.2625 6.11301 11.9497 4.80025C10.637 3.4875 8.85652 2.75 7 2.75C5.14348 2.75 3.36301 3.4875 2.05025 4.80025C0.737498 6.11301 0 7.89348 0 9.75C0 11.6065 0.737498 13.387 2.05025 14.6997C3.36301 16.0125 5.14348 16.75 7 16.75ZM4.78516 7.53516C5.04219 7.27813 5.45781 7.27813 5.71211 7.53516L6.99727 8.82031L8.28242 7.53516C8.53945 7.27813 8.95508 7.27813 9.20937 7.53516C9.46367 7.79219 9.46641 8.20781 9.20937 8.46211L7.92422 9.74727L9.20937 11.0324C9.46641 11.2895 9.46641 11.7051 9.20937 11.9594C8.95234 12.2137 8.53672 12.2164 8.28242 11.9594L6.99727 10.6742L5.71211 11.9594C5.45508 12.2164 5.03945 12.2164 4.78516 11.9594C4.53086 11.7023 4.52813 11.2867 4.78516 11.0324L6.07031 9.74727L4.78516 8.46211C4.52813 8.20508 4.52813 7.78945 4.78516 7.53516Z" fill="#CBD5E1"/>
</g>
<defs>
<clipPath id="clip0_40_621">
<path d="M0 2.75H14V16.75H0V2.75Z" fill="white"/>
</clipPath>
</defs>
</svg>
