<svg width="13" height="17" viewBox="0 0 13 17" fill="none" xmlns="http://www.w3.org/2000/svg">
<path d="M12.25 17H0V0H12.25V17Z" stroke="#E5E7EB"/>
<g clip-path="url(#clip0_40_660)">
<path d="M0.257324 8.13213C-0.0844727 8.47393 -0.0844727 9.029 0.257324 9.3708L4.63232 13.7458C4.97412 14.0876 5.5292 14.0876 5.871 13.7458C6.21279 13.404 6.21279 12.8489 5.871 12.5071L2.98623 9.6251H11.3753C11.8593 9.6251 12.2503 9.23408 12.2503 8.7501C12.2503 8.26611 11.8593 7.8751 11.3753 7.8751H2.98896L5.86826 4.99307C6.21006 4.65127 6.21006 4.09619 5.86826 3.75439C5.52647 3.4126 4.97139 3.4126 4.62959 3.75439L0.25459 8.12939L0.257324 8.13213Z" fill="#2563EB"/>
</g>
<defs>
<clipPath id="clip0_40_660">
<path d="M0 1.75H12.25V15.75H0V1.75Z" fill="white"/>
</clipPath>
</defs>
</svg>
