<svg width="12" height="16" viewBox="0 0 12 16" fill="none" xmlns="http://www.w3.org/2000/svg">
<path d="M12 16H0V0H12V16Z" stroke="#E5E7EB"/>
<g clip-path="url(#clip0_18_2718)">
<path d="M6 13.5C7.5913 13.5 9.11742 12.8679 10.2426 11.7426C11.3679 10.6174 12 9.0913 12 7.5C12 5.9087 11.3679 4.38258 10.2426 3.25736C9.11742 2.13214 7.5913 1.5 6 1.5C4.4087 1.5 2.88258 2.13214 1.75736 3.25736C0.632141 4.38258 0 5.9087 0 7.5C0 9.0913 0.632141 10.6174 1.75736 11.7426C2.88258 12.8679 4.4087 13.5 6 13.5ZM6 4.5C6.31172 4.5 6.5625 4.75078 6.5625 5.0625V7.6875C6.5625 7.99922 6.31172 8.25 6 8.25C5.68828 8.25 5.4375 7.99922 5.4375 7.6875V5.0625C5.4375 4.75078 5.68828 4.5 6 4.5ZM5.25 9.75C5.25 9.55109 5.32902 9.36032 5.46967 9.21967C5.61032 9.07902 5.80109 9 6 9C6.19891 9 6.38968 9.07902 6.53033 9.21967C6.67098 9.36032 6.75 9.55109 6.75 9.75C6.75 9.94891 6.67098 10.1397 6.53033 10.2803C6.38968 10.421 6.19891 10.5 6 10.5C5.80109 10.5 5.61032 10.421 5.46967 10.2803C5.32902 10.1397 5.25 9.94891 5.25 9.75Z" fill="#991B1B"/>
</g>
<defs>
<clipPath id="clip0_18_2718">
<path d="M0 1.5H12V13.5H0V1.5Z" fill="white"/>
</clipPath>
</defs>
</svg>
