<svg width="12" height="16" viewBox="0 0 12 16" fill="none" xmlns="http://www.w3.org/2000/svg">
<path d="M12 16H0V0H12V16Z" stroke="#E5E7EB"/>
<g clip-path="url(#clip0_18_2792)">
<path d="M6.00011 2.25C6.33292 2.25 6.63996 2.42578 6.80871 2.71406L11.8712 11.3391C12.0423 11.6297 12.0423 11.9883 11.8759 12.2789C11.7095 12.5695 11.3978 12.75 11.0626 12.75H0.937611C0.602455 12.75 0.290736 12.5695 0.12433 12.2789C-0.042076 11.9883 -0.0397323 11.6273 0.129018 11.3391L5.19152 2.71406C5.36027 2.42578 5.6673 2.25 6.00011 2.25ZM6.00011 5.25C5.68839 5.25 5.43761 5.50078 5.43761 5.8125V8.4375C5.43761 8.74922 5.68839 9 6.00011 9C6.31183 9 6.56261 8.74922 6.56261 8.4375V5.8125C6.56261 5.50078 6.31183 5.25 6.00011 5.25ZM6.75011 10.5C6.75011 10.3011 6.67109 10.1103 6.53044 9.96967C6.38979 9.82902 6.19902 9.75 6.00011 9.75C5.8012 9.75 5.61043 9.82902 5.46978 9.96967C5.32913 10.1103 5.25011 10.3011 5.25011 10.5C5.25011 10.6989 5.32913 10.8897 5.46978 11.0303C5.61043 11.171 5.8012 11.25 6.00011 11.25C6.19902 11.25 6.38979 11.171 6.53044 11.0303C6.67109 10.8897 6.75011 10.6989 6.75011 10.5Z" fill="#854D0E"/>
</g>
<defs>
<clipPath id="clip0_18_2792">
<path d="M0 1.5H12V13.5H0V1.5Z" fill="white"/>
</clipPath>
</defs>
</svg>
