<svg width="12" height="15" viewBox="0 0 12 15" fill="none" xmlns="http://www.w3.org/2000/svg">
<path d="M12 15H0V0H12V15Z" stroke="#E5E7EB"/>
<g clip-path="url(#clip0_18_2835)">
<path d="M6 13.5C7.5913 13.5 9.11742 12.8679 10.2426 11.7426C11.3679 10.6174 12 9.0913 12 7.5C12 5.9087 11.3679 4.38258 10.2426 3.25736C9.11742 2.13214 7.5913 1.5 6 1.5C4.4087 1.5 2.88258 2.13214 1.75736 3.25736C0.632141 4.38258 0 5.9087 0 7.5C0 9.0913 0.632141 10.6174 1.75736 11.7426C2.88258 12.8679 4.4087 13.5 6 13.5Z" fill="#6B7280"/>
</g>
<defs>
<clipPath id="clip0_18_2835">
<path d="M0 1.5H12V13.5H0V1.5Z" fill="white"/>
</clipPath>
</defs>
</svg>
