<svg width="14" height="17" viewBox="0 0 14 17" fill="none" xmlns="http://www.w3.org/2000/svg">
<path d="M14 17H0V0H14V17Z" stroke="#E5E7EB"/>
<g clip-path="url(#clip0_18_2675)">
<path d="M1.09375 3.0625C0.730078 3.0625 0.4375 3.35508 0.4375 3.71875V5.03125C0.4375 5.39492 0.730078 5.6875 1.09375 5.6875H2.40625C2.76992 5.6875 3.0625 5.39492 3.0625 5.03125V3.71875C3.0625 3.35508 2.76992 3.0625 2.40625 3.0625H1.09375ZM5.25 3.5C4.76602 3.5 4.375 3.89102 4.375 4.375C4.375 4.85898 4.76602 5.25 5.25 5.25H13.125C13.609 5.25 14 4.85898 14 4.375C14 3.89102 13.609 3.5 13.125 3.5H5.25ZM5.25 7.875C4.76602 7.875 4.375 8.26602 4.375 8.75C4.375 9.23398 4.76602 9.625 5.25 9.625H13.125C13.609 9.625 14 9.23398 14 8.75C14 8.26602 13.609 7.875 13.125 7.875H5.25ZM5.25 12.25C4.76602 12.25 4.375 12.641 4.375 13.125C4.375 13.609 4.76602 14 5.25 14H13.125C13.609 14 14 13.609 14 13.125C14 12.641 13.609 12.25 13.125 12.25H5.25ZM0.4375 8.09375V9.40625C0.4375 9.76992 0.730078 10.0625 1.09375 10.0625H2.40625C2.76992 10.0625 3.0625 9.76992 3.0625 9.40625V8.09375C3.0625 7.73008 2.76992 7.4375 2.40625 7.4375H1.09375C0.730078 7.4375 0.4375 7.73008 0.4375 8.09375ZM1.09375 11.8125C0.730078 11.8125 0.4375 12.1051 0.4375 12.4688V13.7812C0.4375 14.1449 0.730078 14.4375 1.09375 14.4375H2.40625C2.76992 14.4375 3.0625 14.1449 3.0625 13.7812V12.4688C3.0625 12.1051 2.76992 11.8125 2.40625 11.8125H1.09375Z" fill="#4B5563"/>
</g>
<defs>
<clipPath id="clip0_18_2675">
<path d="M0 1.75H14V15.75H0V1.75Z" fill="white"/>
</clipPath>
</defs>
</svg>
